<svg width="76" height="83" viewBox="0 0 76 83" fill="none" xmlns="http://www.w3.org/2000/svg">
<path d="M12.8896 68.2343C6.19268 65.9057 2.7894 61.906 3.54588 57.2578C3.90526 55.0967 5.04627 52.8572 6.89167 50.6801C6.78497 50.6498 6.68239 50.6067 6.5862 50.5518C5.86745 50.1403 5.39487 49.4169 5.21698 48.5137C2.82893 51.1986 1.34292 54.0367 0.884712 56.8284C0.386978 59.9071 1.2351 62.8378 3.34104 65.3196C5.26549 67.5769 8.25729 69.4565 11.9948 70.7553C12.1617 70.8138 12.3387 70.8391 12.5155 70.8298C12.6923 70.8205 12.8655 70.7767 13.0253 70.701C13.1851 70.6254 13.3282 70.5192 13.4466 70.3887C13.565 70.2581 13.6563 70.1057 13.7153 69.9402C13.7743 69.7747 13.7998 69.5992 13.7904 69.4239C13.781 69.2486 13.7369 69.0768 13.6606 68.9184C13.5843 68.76 13.4772 68.6181 13.3455 68.5007C13.2139 68.3833 13.0602 68.2928 12.8932 68.2343H12.8896Z" fill="#333333"/>
<path d="M59.0688 37.7754L59.0778 40.9039C62.6015 43.2538 64.2079 46.4162 63.6257 49.9527C63.0615 53.3894 60.7615 56.8814 56.9773 60.0473C53.114 63.2827 47.9749 65.9391 42.1369 67.7314C41.8282 67.8253 41.5637 68.026 41.3917 68.297C41.2197 68.568 41.1515 68.8912 41.1996 69.2078C41.2477 69.5245 41.4089 69.8134 41.6538 70.0221C41.8987 70.2308 42.2111 70.3454 42.534 70.345C42.6693 70.3451 42.8038 70.3246 42.9329 70.2844C55.7823 66.3399 64.9482 58.5258 66.2923 50.3821C67.1296 45.3027 64.4936 40.7293 59.0688 37.7754Z" fill="#333333"/>
<path d="M25.8176 72.8608C22.9198 72.8708 20.0273 72.6168 17.1764 72.1019C16.8249 72.0366 16.514 71.8357 16.312 71.5432C16.11 71.2506 16.0334 70.8905 16.0992 70.5421C16.1649 70.1936 16.3676 69.8853 16.6627 69.685C16.9577 69.4847 17.3209 69.4088 17.6723 69.474C20.7542 70.0262 23.8855 70.2602 27.0161 70.1724H27.0466C27.4041 70.1684 27.7484 70.3053 28.004 70.553C28.2596 70.8008 28.4055 71.1391 28.4096 71.4934C28.4136 71.8478 28.2755 72.1893 28.0256 72.4427C27.7758 72.6961 27.4346 72.8408 27.0772 72.8448C26.6543 72.8555 26.2344 72.8608 25.8176 72.8608Z" fill="#333333"/>
<path d="M9.55654 72.2452C9.24572 72.2467 8.94393 72.1417 8.70227 71.9479C8.46061 71.7541 8.29395 71.4834 8.23052 71.1817C8.16708 70.88 8.21077 70.5659 8.35419 70.2925C8.49761 70.019 8.73193 69.8032 9.01748 69.6815L10.8754 68.8958L10.0201 66.936C9.87716 66.6093 9.87096 66.2396 10.0029 65.9083C10.1348 65.577 10.3941 65.3113 10.7236 65.1695C11.0532 65.0278 11.426 65.0216 11.7601 65.1524C12.0942 65.2832 12.3622 65.5403 12.5052 65.867L13.8942 69.0597C14.0354 69.3853 14.0405 69.7531 13.9084 70.0825C13.7764 70.4118 13.5179 70.6757 13.1898 70.8163L10.0974 72.1365C9.92679 72.21 9.74252 72.247 9.55654 72.2452Z" fill="#333333"/>
<path d="M56.7946 9.6845C56.7551 9.6845 56.7174 9.6845 56.6778 9.6845L50.475 9.16249C50.2951 9.15244 50.119 9.10672 49.9572 9.02802C49.7954 8.94932 49.6512 8.83925 49.5331 8.70431C49.4149 8.56937 49.3253 8.41231 49.2695 8.24242C49.2136 8.07253 49.1927 7.89326 49.208 7.71522C49.2232 7.53717 49.2744 7.36397 49.3583 7.20587C49.4423 7.04776 49.5574 6.90795 49.6968 6.79472C49.8362 6.68149 49.9971 6.59714 50.17 6.54664C50.3428 6.49615 50.5242 6.48055 50.7032 6.50076L56.906 7.02278C57.2635 7.03742 57.6004 7.19225 57.8427 7.4532C58.085 7.71414 58.2128 8.05983 58.198 8.41421C58.1832 8.7686 58.0271 9.10265 57.7639 9.34288C57.5007 9.58311 57.1521 9.70984 56.7946 9.69519V9.6845Z" fill="#333333"/>
<path d="M69.1064 72.6764H68.9932L27.6363 69.1933C27.4599 69.1785 27.2881 69.1294 27.1309 69.0487C26.9736 68.9681 26.834 68.8575 26.7198 68.7234C26.6057 68.5892 26.5193 68.434 26.4657 68.2667C26.4121 68.0995 26.3922 67.9233 26.4072 67.7484L31.2264 11.3641C31.2414 11.1892 31.2909 11.0189 31.3722 10.863C31.4536 10.7071 31.5651 10.5686 31.7004 10.4554C31.8358 10.3422 31.9922 10.2566 32.161 10.2034C32.3297 10.1503 32.5073 10.1305 32.6837 10.1454L74.0352 13.6232C74.3911 13.6531 74.7205 13.8219 74.951 14.0925C75.1814 14.3631 75.2941 14.7133 75.2642 15.0663L70.445 71.4524C70.4163 71.7859 70.2625 72.0966 70.014 72.3232C69.7655 72.5498 69.4404 72.6758 69.1028 72.6764H69.1064ZM29.2157 66.6438L67.8827 69.8953L72.4737 16.1726L33.7978 12.9212L29.2157 66.6438Z" fill="#333333"/>
<path d="M63.1889 82.4901C62.9912 82.4901 62.7936 82.4812 62.5941 82.4651L32.2701 79.9103C30.4497 79.7588 28.7646 78.8967 27.5852 77.5135C26.4058 76.1304 25.8288 74.3394 25.981 72.5345L31.6358 6.57572C31.7903 4.77219 32.661 3.10338 34.0564 1.93633C35.4518 0.769289 37.2576 0.199596 39.0766 0.352558L69.4079 2.90739C71.2262 3.06063 72.9087 3.92345 74.0857 5.30621C75.2626 6.68897 75.8376 8.4785 75.6844 10.2815L70.035 76.242C69.8893 77.9439 69.1053 79.5298 67.8379 80.6866C66.5704 81.8433 64.9116 82.4868 63.1889 82.4901ZM38.4908 3.00003C37.4424 3.00244 36.433 3.3941 35.6614 4.09783C34.8897 4.80155 34.4119 5.76631 34.3221 6.80198L28.6763 72.7589C28.5837 73.856 28.9337 74.9447 29.6495 75.7864C30.3652 76.628 31.3884 77.1538 32.4947 77.2486L62.8169 79.8016C63.3647 79.8486 63.9165 79.7881 64.4407 79.6236C64.965 79.4591 65.4514 79.1938 65.8722 78.8429C66.293 78.492 66.64 78.0623 66.8933 77.5785C67.1467 77.0946 67.3014 76.566 67.3487 76.0228L72.998 10.057C73.0911 8.95998 72.7413 7.8712 72.0253 7.02975C71.3094 6.18829 70.2859 5.66295 69.1797 5.56911L38.8484 3.01606C38.728 3.00537 38.6094 3.00003 38.4908 3.00003Z" fill="#333333"/>
<path d="M20.5889 29.5312C20.5889 39.8415 20.5889 60.7911 20.5889 62.1073C20.5889 63.7526 22.2341 64.4107 23.5503 64.5752C24.8665 64.7397 27.3344 64.0816 27.6635 62.1073C27.9267 60.5279 27.7731 48.7259 27.6635 43.0223" stroke="#333333" stroke-width="2.5" stroke-linecap="round" stroke-linejoin="bevel"/>
<path d="M35.0479 29.5312C35.0479 39.8415 35.0479 60.7911 35.0479 62.1073C35.0479 63.7526 33.4026 64.4107 32.0864 64.5752C30.7702 64.7397 28.3023 64.0816 27.9733 62.1073" stroke="#333333" stroke-width="2.5" stroke-linecap="round" stroke-linejoin="bevel"/>
<path d="M20.5885 41.7041C20.2595 45.1592 17.0206 46.9273 14.6349 44.4181C12.5293 42.2036 13.8535 20.4385 27.3445 22.4539" stroke="#333333" stroke-width="2.5" stroke-linecap="round" stroke-linejoin="bevel"/>
<path d="M35.0669 41.5396C35.396 44.9947 38.7987 46.9273 41.1845 44.4181C43.2901 42.2036 41.9659 20.4385 28.4749 22.4539" stroke="#333333" stroke-width="2.5" stroke-linecap="round" stroke-linejoin="bevel"/>
<circle cx="27.6635" cy="16.0394" r="5.8246" stroke="#333333" stroke-width="2.5"/>
</svg>
