<svg width="103" height="39" viewBox="0 0 103 39" fill="none" xmlns="http://www.w3.org/2000/svg">
<path d="M1.14648 12.8135V8.97266H4.9502V7.87793C4.9502 6.8265 5.1543 5.83073 5.5625 4.89062C5.9707 3.95052 6.61393 3.18359 7.49219 2.58984C8.38281 1.98372 9.50846 1.68066 10.8691 1.68066H14.5244V5.41016H12.001C11.1969 5.41016 10.5661 5.68229 10.1084 6.22656C9.66309 6.77083 9.44043 7.4388 9.44043 8.23047V8.97266H14.4316V12.8135H9.44043V28.0469H4.9502V12.8135H1.14648ZM19.5713 6.00391C18.7301 6.00391 18.056 5.7627 17.5488 5.28027C17.054 4.78548 16.8066 4.16699 16.8066 3.4248C16.8066 2.69499 17.054 2.08887 17.5488 1.60645C18.056 1.11165 18.7363 0.864258 19.5898 0.864258C20.4557 0.864258 21.1423 1.11165 21.6494 1.60645C22.1566 2.08887 22.4102 2.69499 22.4102 3.4248C22.4102 4.17936 22.1566 4.79785 21.6494 5.28027C21.1423 5.7627 20.4495 6.00391 19.5713 6.00391ZM17.3633 8.97266H21.8535V28.0469H17.3633V8.97266ZM34.9717 28.0469C33.1533 28.0469 31.6442 27.5459 30.4443 26.5439C29.2445 25.5296 28.6445 23.6123 28.6445 20.792V12.832H24.6924V8.97266H28.6445V3.3877L33.1348 3.35059V8.97266H38.8496V12.832H33.1348V20.9961C33.1348 23.2103 34.0563 24.3174 35.8994 24.3174H38.8496V28.0469H34.9717ZM49.3516 28.6221C47.5703 28.6221 46.0612 28.3128 44.8242 27.6943C43.5872 27.0758 42.6657 26.2594 42.0596 25.2451C41.4535 24.2308 41.1504 23.1423 41.1504 21.9795L45.4551 21.998C45.4922 22.9134 45.8447 23.6556 46.5127 24.2246C47.193 24.7812 48.1517 25.0596 49.3887 25.0596C50.5143 25.0596 51.3617 24.8493 51.9307 24.4287C52.4997 23.9958 52.7842 23.402 52.7842 22.6475C52.7842 22.1279 52.6357 21.7135 52.3389 21.4043C52.042 21.0827 51.609 20.8353 51.04 20.6621C50.471 20.4889 49.7103 20.3281 48.7578 20.1797C46.6797 19.9076 45.0221 19.3138 43.7852 18.3984C42.5482 17.4831 41.9297 16.11 41.9297 14.2793C41.9297 13.1042 42.208 12.0775 42.7646 11.1992C43.3213 10.3086 44.1377 9.62207 45.2139 9.13965C46.29 8.64486 47.5889 8.39746 49.1104 8.39746C50.6318 8.39746 51.974 8.65723 53.1367 9.17676C54.2995 9.68392 55.2025 10.4014 55.8457 11.3291C56.4889 12.2568 56.8105 13.3206 56.8105 14.5205L52.4131 14.4834C52.3636 13.7536 52.0544 13.1722 51.4854 12.7393C50.9287 12.2939 50.1432 12.0713 49.1289 12.0713C48.2135 12.0713 47.5208 12.2692 47.0508 12.665C46.5807 13.0609 46.3457 13.568 46.3457 14.1865C46.3457 14.6813 46.4508 15.071 46.6611 15.3555C46.8714 15.6276 47.2549 15.8626 47.8115 16.0605C48.3682 16.2461 49.2093 16.4255 50.335 16.5986C51.8193 16.8213 53.0625 17.1305 54.0645 17.5264C55.0788 17.9222 55.8828 18.5098 56.4766 19.2891C57.0703 20.0684 57.3672 21.1012 57.3672 22.3877C57.3672 23.7484 57.0208 24.8988 56.3281 25.8389C55.6478 26.7666 54.7077 27.4655 53.5078 27.9355C52.3079 28.3932 50.9225 28.6221 49.3516 28.6221Z" fill="black"/>
<path d="M96.7514 8.88867L96.7091 28.5337L82.0254 32.4665L82.0716 12.8254" fill="#F4F4F4"/>
<path fill-rule="evenodd" clip-rule="evenodd" d="M96.7526 8.16992C97.1494 8.17078 97.4703 8.49311 97.4695 8.88986L97.4271 28.5349C97.4264 28.8595 97.2081 29.1433 96.8946 29.2273L82.2109 33.1601C81.9949 33.218 81.7642 33.1719 81.587 33.0356C81.4098 32.8992 81.3061 32.6881 81.3066 32.4645L81.3529 12.8233C81.3538 12.4266 81.6762 12.1057 82.0729 12.1066C82.4697 12.1076 82.7906 12.43 82.7896 12.8267L82.7456 31.5295L95.9915 27.9817L96.0327 8.88676C96.0335 8.49001 96.3559 8.16907 96.7526 8.16992Z" fill="black" stroke="black" stroke-linecap="round" stroke-linejoin="round"/>
<path d="M86.9488 20.2218C87.0366 19.5558 87.2236 18.9066 87.5035 18.2959C87.7365 17.7804 88.0615 17.3118 88.4626 16.913C88.7939 16.5827 89.2033 16.3415 89.6529 16.212C90.0811 16.0864 90.5407 16.1234 90.9433 16.316C91.3577 16.5211 91.6972 16.8512 91.914 17.2597C92.17 17.7268 92.31 18.2486 92.3223 18.7812L86.9295 20.2218H86.9488ZM89.6644 14.2359C88.8205 14.4866 88.075 14.9926 87.5304 15.6842C86.853 16.5091 86.3392 17.4556 86.0166 18.4731C85.6437 19.5842 85.4537 20.7485 85.4542 21.9206C85.4302 22.9961 85.6147 24.0661 85.9973 25.0715C86.2822 25.8684 86.8087 26.5565 87.5035 27.0398C87.8155 27.243 88.1681 27.3756 88.5368 27.4282C88.9054 27.4807 89.2811 27.452 89.6375 27.3441C90.2782 27.163 90.8627 26.8224 91.3362 26.3542C91.8821 25.8273 92.3341 25.2111 92.6728 24.5322C93.0347 23.8104 93.2941 23.0415 93.4432 22.248L91.8831 22.6678C91.7378 23.3343 91.4398 23.958 91.0126 24.4898C90.6457 24.9393 90.1474 25.2626 89.5874 25.4143C89.3745 25.4752 89.1516 25.4926 88.9319 25.4654C88.7122 25.4383 88.5002 25.3672 88.3085 25.2564C87.8657 24.9832 87.5185 24.5795 87.3147 24.1008C87.0292 23.4685 86.8683 22.7871 86.8409 22.0939L93.6782 20.2604C93.6782 19.802 93.7051 19.5169 93.7051 19.4014C93.7249 18.3897 93.5483 17.3837 93.1851 16.4392C92.9098 15.6698 92.4024 15.0049 91.7329 14.5363C91.428 14.3368 91.0829 14.2068 90.7221 14.1556C90.3613 14.1043 89.9936 14.133 89.6452 14.2397" fill="black"/>
<path d="M82.0255 32.467L68.0352 28.4224L68.0814 8.78125L82.0717 12.8258L82.0255 32.467Z" fill="#252626"/>
<path d="M82.0245 32.467L68.0342 28.4224L68.0804 8.78125L82.0707 12.8258L82.0245 32.467Z" fill="black"/>
<path d="M77.8631 15.7592C77.6387 15.6881 77.3994 15.6773 77.1695 15.728C76.9396 15.7788 76.7271 15.8891 76.5534 16.0481C76.069 16.5312 75.7197 17.1328 75.5404 17.793C75.4114 16.9951 75.1316 16.229 74.7161 15.5357C74.4073 15.0165 73.9175 14.6296 73.3409 14.4495C73.1233 14.3781 72.8909 14.364 72.6662 14.4085C72.4415 14.453 72.2321 14.5547 72.0582 14.7037C71.6476 15.0622 71.3571 15.5382 71.2262 16.0673V14.1953L69.7432 13.7754V25.7627L71.2839 26.2057V20.0811C71.2742 19.4699 71.3507 18.8604 71.5112 18.2706C71.6088 17.854 71.8117 17.4693 72.1006 17.1536C72.1948 17.0471 72.3166 16.9689 72.4526 16.9274C72.5886 16.8859 72.7334 16.8829 72.871 16.9186C73.1174 17.0103 73.3387 17.1589 73.5168 17.3523C73.6948 17.5458 73.8246 17.7786 73.8956 18.0318C74.172 18.8815 74.2934 19.7739 74.2538 20.6666V27.0685L75.7946 27.5115V21.3869C75.7848 20.7757 75.8613 20.1662 76.0219 19.5764C76.1201 19.16 76.323 18.7756 76.6112 18.4594C76.7054 18.353 76.8273 18.2747 76.9633 18.2332C77.0992 18.1917 77.244 18.1887 77.3816 18.2244C77.629 18.3162 77.8512 18.4653 78.03 18.6594C78.2087 18.8536 78.339 19.0873 78.4101 19.3415C78.6864 20.1912 78.8078 21.0836 78.7683 21.9762V28.3782L80.3091 28.825V22.3653C80.3666 20.8222 80.1581 19.2808 79.6928 17.8084C79.2768 16.6759 78.6592 15.9916 77.84 15.7553" fill="white"/>
<path fill-rule="evenodd" clip-rule="evenodd" d="M67.649 8.20619C67.8294 8.07087 68.0629 8.02813 68.2796 8.09077L82.2699 12.1353C82.5778 12.2244 82.7895 12.5066 82.7888 12.8271L82.7425 32.4683C82.742 32.6938 82.6356 32.906 82.4552 33.0413C82.2748 33.1766 82.0413 33.2194 81.8246 33.1568L67.8343 29.1122C67.5264 29.0232 67.3147 28.7409 67.3154 28.4204L67.3617 8.77921C67.3622 8.55369 67.4686 8.3415 67.649 8.20619ZM68.7962 9.73574L68.7535 27.8823L81.308 31.5118L81.3507 13.3652L68.7962 9.73574Z" fill="black" stroke="black" stroke-linecap="round" stroke-linejoin="round"/>
<path d="M86.0697 11.7503L82.0714 12.825L68.0811 8.78046L82.7609 4.84375L96.7512 8.88831" fill="#F4F4F4"/>
<path fill-rule="evenodd" clip-rule="evenodd" d="M82.5745 4.14952C82.7009 4.1156 82.8343 4.1169 82.96 4.15326L96.9504 8.19782C97.3315 8.30801 97.5512 8.70632 97.441 9.08747C97.3308 9.46862 96.9325 9.68827 96.5513 9.57808L82.7533 5.58911L70.7573 8.80609L82.0781 12.0789L85.8829 11.0562C86.2661 10.9532 86.6602 11.1803 86.7631 11.5635C86.8661 11.9467 86.639 12.3408 86.2558 12.4437L82.2575 13.5184C82.1309 13.5525 81.9974 13.5512 81.8715 13.5148L67.8812 9.47023C67.5714 9.38066 67.3592 9.09561 67.3623 8.77312C67.3655 8.45064 67.5831 8.16976 67.8946 8.08622L82.5745 4.14952Z" fill="black" stroke="black" stroke-linecap="round" stroke-linejoin="round"/>
<path d="M97.9275 26.0941C100.276 27.1764 101.666 28.5098 101.666 29.9568C101.666 33.5443 93.0481 36.4772 82.416 36.4772C71.7839 36.4772 63.166 33.5563 63.166 29.9568C63.166 28.4799 64.6116 27.1196 67.0532 26.0254" stroke="black" stroke-width="2" stroke-linecap="round" stroke-linejoin="round"/>
<path d="M93.3213 33.1855L90.8456 35.561" stroke="black" stroke-width="2" stroke-linecap="round" stroke-linejoin="round"/>
<path d="M94.019 37.4654L90.87 35.8961C90.8249 35.8686 90.7959 35.8271 90.7893 35.7807C90.7828 35.7342 90.7991 35.6863 90.8349 35.6474" stroke="black" stroke-width="2" stroke-linecap="round" stroke-linejoin="round"/>
</svg>
