<svg width="103" height="49" viewBox="0 0 103 49" fill="none" xmlns="http://www.w3.org/2000/svg">
<path d="M0 14.4907V9.83297H3.79886V8.5054C3.79886 7.23034 4.0027 6.02279 4.41038 4.88273C4.81807 3.74268 5.46047 2.81263 6.33761 2.0926C7.2271 1.35756 8.35131 0.990047 9.71025 0.990047H13.3609V5.51276H10.8406C10.0376 5.51276 9.40758 5.84278 8.95048 6.50281C8.50574 7.16284 8.28337 7.97288 8.28337 8.93293V9.83297H13.2682V14.4907H8.28337V32.9641H3.79886V14.4907H0Z" fill="black"/>
<path d="M18.4013 6.2328C17.5612 6.2328 16.8879 5.94028 16.3814 5.35525C15.8873 4.75523 15.6402 4.00519 15.6402 3.10515C15.6402 2.22011 15.8873 1.48507 16.3814 0.900043C16.8879 0.300014 17.5674 0 18.4198 0C19.2846 0 19.9703 0.300014 20.4768 0.900043C20.9833 1.48507 21.2365 2.22011 21.2365 3.10515C21.2365 4.02019 20.9833 4.77023 20.4768 5.35525C19.9703 5.94028 19.2784 6.2328 18.4013 6.2328ZM16.1961 9.83297H20.6806V32.9641H16.1961V9.83297Z" fill="black"/>
<path d="M33.782 32.9641C31.966 32.9641 30.4588 32.3565 29.2605 31.1415C28.0621 29.9114 27.463 27.5863 27.463 24.1661V14.5132H23.5159V9.83297H27.463V3.06015L31.9475 3.01514V9.83297H37.655V14.5132H31.9475V24.4137C31.9475 27.0988 32.8679 28.4414 34.7086 28.4414H37.655V32.9641H33.782Z" fill="black"/>
<path d="M48.1436 33.6616C46.3646 33.6616 44.8574 33.2866 43.622 32.5365C42.3866 31.7865 41.4662 30.7965 40.8609 29.5664C40.2556 28.3363 39.9529 27.0163 39.9529 25.6062L44.2521 25.6287C44.2891 26.7388 44.6412 27.6388 45.3083 28.3288C45.9878 29.0039 46.9453 29.3414 48.1807 29.3414C49.3049 29.3414 50.1511 29.0864 50.7194 28.5764C51.2877 28.0513 51.5718 27.3313 51.5718 26.4163C51.5718 25.7862 51.4236 25.2837 51.1271 24.9087C50.8306 24.5187 50.3982 24.2187 49.8299 24.0086C49.2616 23.7986 48.5019 23.6036 47.5506 23.4236C45.4751 23.0936 43.8197 22.3736 42.5843 21.2635C41.3489 20.1535 40.7312 18.4884 40.7312 16.2683C40.7312 14.8432 41.0091 13.5981 41.5651 12.5331C42.121 11.453 42.9364 10.6205 44.0112 10.0355C45.086 9.43545 46.3831 9.13543 47.9027 9.13543C49.4222 9.13543 50.7626 9.45045 51.9239 10.0805C53.0852 10.6955 53.987 11.5656 54.6294 12.6906C55.2719 13.8157 55.5931 15.1057 55.5931 16.5608L51.2012 16.5158C51.1518 15.6307 50.8429 14.9257 50.2747 14.4007C49.7187 13.8607 48.9342 13.5906 47.9212 13.5906C47.007 13.5906 46.3152 13.8307 45.8457 14.3107C45.3763 14.7907 45.1416 15.4057 45.1416 16.1558C45.1416 16.7558 45.2466 17.2283 45.4566 17.5733C45.6666 17.9034 46.0496 18.1884 46.6055 18.4284C47.1614 18.6534 48.0015 18.8709 49.1257 19.0809C50.6082 19.3509 51.8498 19.7259 52.8505 20.206C53.8635 20.686 54.6665 21.3985 55.2595 22.3436C55.8525 23.2886 56.149 24.5412 56.149 26.1012C56.149 27.7513 55.8031 29.1464 55.1113 30.2864C54.4318 31.4115 53.4929 32.259 52.2945 32.8291C51.0962 33.3841 49.7126 33.6616 48.1436 33.6616Z" fill="black"/>
<path d="M97.9792 31.4029C100.505 32.7331 102 34.3721 102 36.1506C102 40.5604 92.7317 44.1653 81.2973 44.1653C69.8629 44.1653 60.5947 40.5751 60.5947 36.1506C60.5947 34.3353 62.1494 32.6633 64.7752 31.3184" stroke="black" stroke-width="2" stroke-linecap="round" stroke-linejoin="round"/>
<path d="M74.5283 40.1133L71.0243 42.4983" stroke="black" stroke-width="2" stroke-linecap="round" stroke-linejoin="round"/>
<path d="M73.3671 47.0007L70.9028 43.0222C70.8696 42.9575 70.8587 42.8797 70.8723 42.8054C70.886 42.7311 70.9231 42.6662 70.9757 42.6247" stroke="black" stroke-width="2" stroke-linecap="round" stroke-linejoin="round"/>
<path d="M90.2671 33.2136L85.5918 31.8199L95.3011 29.416L100.425 30.9006L90.2671 33.2136Z" fill="black"/>
<path d="M89.5876 21.5868L85.2773 19.823L95.0629 17.7559L100.417 18.8583L89.5876 21.5868Z" fill="black"/>
<path d="M100.896 6.85938V11.5548L89.9195 14.4866V21.0791L100.417 18.8509V23.2598L89.9195 26.1619V33.0563L95.1681 31.9773L100.417 30.8984V35.122L86.3604 38.7304L86.1895 9.98215L100.896 6.85938Z" fill="#7FD7FF"/>
<path d="M86.9349 38.4724L81.5806 37.3654L80.9238 9.64844H86.9349V38.4724Z" fill="black"/>
<path d="M84.1486 10.4874L79.9678 9.25441L94.1057 6.08398L100.888 6.90715L84.1486 10.4874Z" fill="black"/>
<path d="M67.1152 14.167L71.2644 12.6758V32.918L67.1152 34.0856V14.167Z" fill="#7FD7FF"/>
<path d="M63.0928 4.71159L67.5003 3.56445L70.8198 4.45222L66.4175 5.59936L63.0928 4.71159Z" fill="black"/>
<path d="M66.418 5.59823L70.8019 4.44727L78.3694 19.486L73.938 20.974L66.418 5.59823Z" fill="#7FD6FE"/>
<path d="M80.5568 17.7802L84.5129 16.293L78.5765 26.4291L74.6152 27.9163L80.5568 17.7802Z" fill="#7FD7FF"/>
<path d="M84.1584 10.3389V39.3159L80.5557 37.737V17.7888L74.6141 27.9249L73.5915 27.6549L67.115 14.1645V33.9941L63.0928 33.3651V4.71484L66.4175 5.60261L73.9376 20.9784L79.9713 9.25346L84.1584 10.3389Z" fill="black"/>
<path d="M84.1582 10.5585L86.9337 9.9043L87.887 38.3376L84.1582 39.3188V10.5585Z" fill="#7FD7FF"/>
</svg>
