<svg width="107" height="41" viewBox="0 0 107 41" fill="none" xmlns="http://www.w3.org/2000/svg">
<path d="M0.172852 12.3069V8.3511H4.09041V7.2236C4.09041 6.1407 4.30062 5.11513 4.72105 4.14688C5.14147 3.17864 5.80395 2.38876 6.70849 1.77724C7.62577 1.15297 8.78512 0.840843 10.1865 0.840843H13.9512V4.68196H11.3522C10.5241 4.68196 9.87439 4.96225 9.40301 5.52281C8.94437 6.08337 8.71505 6.77133 8.71505 7.58669V8.3511H13.8557V12.3069H8.71505V27.9962H4.09041V12.3069H0.172852Z" fill="black"/>
<path d="M19.1491 5.29349C18.2828 5.29349 17.5885 5.04506 17.0661 4.54819C16.5565 4.03859 16.3017 3.40159 16.3017 2.63719C16.3017 1.88553 16.5565 1.26126 17.0661 0.764402C17.5885 0.254801 18.2892 0 19.1682 0C20.0601 0 20.7671 0.254801 21.2895 0.764402C21.8118 1.26126 22.073 1.88553 22.073 2.63719C22.073 3.41433 21.8118 4.05133 21.2895 4.54819C20.7671 5.04506 20.0537 5.29349 19.1491 5.29349ZM16.875 8.3511H21.4997V27.9962H16.875V8.3511Z" fill="black"/>
<path d="M35.0105 27.9962C33.1377 27.9962 31.5834 27.4803 30.3476 26.4483C29.1118 25.4036 28.494 23.4289 28.494 20.5242V12.326H24.4235V8.3511H28.494V2.59897L33.1186 2.56075V8.3511H39.0045V12.326H33.1186V20.7344C33.1186 23.0149 34.0677 24.1551 35.966 24.1551H39.0045V27.9962H35.0105Z" fill="black"/>
<path d="M49.8208 28.5886C47.9862 28.5886 46.4319 28.2701 45.1579 27.6331C43.8839 26.9961 42.9348 26.1553 42.3105 25.1106C41.6863 24.0659 41.3741 22.9448 41.3741 21.7472L45.8077 21.7664C45.8459 22.7091 46.209 23.4735 46.8969 24.0596C47.5976 24.6329 48.585 24.9195 49.859 24.9195C51.0183 24.9195 51.891 24.7029 52.4771 24.2698C53.0631 23.8239 53.3561 23.2124 53.3561 22.4352C53.3561 21.9001 53.2033 21.4733 52.8975 21.1548C52.5917 20.8236 52.1458 20.5688 51.5598 20.3904C50.9738 20.2121 50.1902 20.0465 49.2093 19.8936C47.0689 19.6133 45.3618 19.0018 44.0878 18.059C42.8138 17.1162 42.1768 15.7021 42.1768 13.8166C42.1768 12.6063 42.4634 11.5488 43.0367 10.6443C43.61 9.72702 44.4509 9.01995 45.5592 8.52309C46.6676 8.01348 48.0053 7.75868 49.5724 7.75868C51.1394 7.75868 52.5217 8.02622 53.7192 8.56131C54.9168 9.08365 55.8468 9.82257 56.5093 10.7781C57.1718 11.7336 57.503 12.8292 57.503 14.065L52.9739 14.0268C52.923 13.2751 52.6045 12.6763 52.0184 12.2304C51.4451 11.7718 50.6361 11.5425 49.5915 11.5425C48.6487 11.5425 47.9353 11.7463 47.4511 12.154C46.967 12.5617 46.725 13.084 46.725 13.721C46.725 14.2306 46.8332 14.6319 47.0498 14.925C47.2664 15.2052 47.6613 15.4473 48.2346 15.6511C48.8079 15.8422 49.6743 16.027 50.8336 16.2053C52.3624 16.4346 53.6428 16.7532 54.6747 17.1608C55.7194 17.5685 56.5475 18.1737 57.159 18.9763C57.7706 19.7789 58.0763 20.8427 58.0763 22.1677C58.0763 23.5691 57.7196 24.7539 57.0062 25.7221C56.3055 26.6776 55.3372 27.3975 54.1014 27.8816C52.8657 28.353 51.4388 28.5886 49.8208 28.5886Z" fill="black"/>
<path d="M101.214 26.6694C103.819 27.7992 105.36 29.1912 105.36 30.7017C105.36 34.4468 95.8022 37.5085 84.0106 37.5085C72.2189 37.5085 62.6611 34.4593 62.6611 30.7017C62.6611 29.1599 64.2644 27.7399 66.9722 26.5977" stroke="black" stroke-width="2" stroke-linecap="round" stroke-linejoin="round"/>
<path d="M77.0303 34.0664L73.4168 36.092" stroke="black" stroke-width="2" stroke-linecap="round" stroke-linejoin="round"/>
<path d="M75.833 39.9163L73.2918 36.5374C73.2576 36.4825 73.2463 36.4164 73.2603 36.3533C73.2744 36.2902 73.3127 36.2351 73.3669 36.1999" stroke="black" stroke-width="2" stroke-linecap="round" stroke-linejoin="round"/>
<path d="M93.2599 28.2077L88.4385 27.0241L98.4511 24.9824L103.735 26.2433L93.2599 28.2077Z" fill="black"/>
<path d="M92.5592 18.3317L88.1143 16.8337L98.2056 15.0781L103.727 16.0144L92.5592 18.3317Z" fill="black"/>
<path d="M104.221 5.82422V9.81206L92.9013 12.302V17.901L103.727 16.0085V19.753L92.9013 22.2177V28.0732L98.3139 27.1568L103.727 26.2404V29.8276L89.231 32.8921L89.0547 8.47638L104.221 5.82422Z" fill="#7FD7FF"/>
<path d="M89.8239 32.6734L84.3023 31.7333L83.625 8.19336H89.8239V32.6734Z" fill="black"/>
<path d="M86.9501 8.90578L82.6387 7.85865L97.2184 5.16602L104.212 5.86512L86.9501 8.90578Z" fill="black"/>
<path d="M69.3848 12.0321L73.6636 10.7656V27.9572L69.3848 28.9489V12.0321Z" fill="#7FD7FF"/>
<path d="M65.2373 4.0016L69.7826 3.02734L73.2058 3.78132L68.666 4.75558L65.2373 4.0016Z" fill="black"/>
<path d="M68.666 4.75485L73.1869 3.77734L80.9909 16.5497L76.4211 17.8134L68.666 4.75485Z" fill="#7FD6FE"/>
<path d="M83.2464 15.101L87.3261 13.8379L81.2042 22.4464L77.1191 23.7095L83.2464 15.101Z" fill="#7FD7FF"/>
<path d="M86.9612 8.7804V33.3905L83.2459 32.0495V15.1076L77.1187 23.7161L76.0641 23.4868L69.3852 12.0295V28.8707L65.2373 28.3364V4.00391L68.666 4.75788L76.421 17.8165L82.6432 7.85854L86.9612 8.7804Z" fill="black"/>
<path d="M86.9609 8.96773L89.8232 8.41211L90.8062 32.5604L86.9609 33.3937V8.96773Z" fill="#7FD7FF"/>
</svg>
