<svg width="76" height="83" viewBox="0 0 76 83" fill="none" xmlns="http://www.w3.org/2000/svg">
<g clip-path="url(#clip0_749_591)">
<path d="M41.5133 52.5449C41.2164 52.5453 40.9277 52.4483 40.692 52.2692C40.4563 52.0901 40.2869 51.8389 40.2101 51.5545C40.1332 51.2701 40.1533 50.9685 40.2671 50.6965C40.3809 50.4246 40.5822 50.1976 40.8395 50.0507L45.1897 47.5564C45.3431 47.4687 45.5124 47.4118 45.688 47.3889C45.8636 47.3661 46.042 47.3777 46.213 47.4232C46.384 47.4687 46.5443 47.5471 46.6848 47.6541C46.8252 47.761 46.9431 47.8943 47.0315 48.0464C47.12 48.1985 47.1774 48.3663 47.2005 48.5404C47.2236 48.7145 47.2118 48.8913 47.1659 49.0609C47.12 49.2305 47.0409 49.3894 46.9331 49.5287C46.8252 49.668 46.6908 49.7848 46.5374 49.8725L42.1872 52.3668C41.9823 52.4839 41.7498 52.5454 41.5133 52.5449ZM41.4828 41.5346C41.1857 41.5353 40.8967 41.4387 40.6607 41.2597C40.4247 41.0807 40.255 40.8295 40.178 40.545C40.1009 40.2605 40.1208 39.9587 40.2346 39.6866C40.3484 39.4145 40.5497 39.1873 40.8072 39.0403L45.1592 36.5461C45.3126 36.4584 45.4819 36.4014 45.6575 36.3786C45.833 36.3557 46.0114 36.3674 46.1824 36.4129C46.3535 36.4583 46.5138 36.5368 46.6542 36.6437C46.7947 36.7506 46.9125 36.884 47.001 37.036C47.0895 37.1881 47.1469 37.356 47.17 37.5301C47.193 37.7041 47.1813 37.881 47.1354 38.0506C47.0895 38.2202 47.0104 38.3791 46.9025 38.5184C46.7947 38.6576 46.6602 38.7744 46.5069 38.8622L42.1548 41.3564C41.9505 41.4733 41.7187 41.5348 41.4828 41.5346Z" fill="#333333"/>
<path d="M51.2631 52.8303C50.9651 52.8329 50.6746 52.7374 50.4372 52.5587C50.1999 52.38 50.0291 52.1283 49.9516 51.8429C49.8741 51.5576 49.8943 51.2548 50.009 50.9821C50.1238 50.7094 50.3266 50.4822 50.5857 50.3361L50.8642 50.1739C51.0175 50.086 51.1869 50.0288 51.3626 50.0057C51.5382 49.9827 51.7167 49.9941 51.8879 50.0394C52.0591 50.0848 52.2196 50.1631 52.3603 50.2699C52.501 50.3768 52.619 50.51 52.7078 50.6621C52.7965 50.8142 52.8541 50.9821 52.8774 51.1562C52.9007 51.3304 52.8891 51.5074 52.8434 51.6772C52.7977 51.8469 52.7187 52.006 52.611 52.1455C52.5032 52.285 52.3688 52.4021 52.2154 52.49L51.9351 52.6504C51.731 52.7679 51.4991 52.83 51.2631 52.8303Z" fill="#333333"/>
<path d="M54.6715 29.1473C54.4625 29.1476 54.2563 29.0994 54.0695 29.0065C54.0188 28.9814 53.9696 28.9535 53.9222 28.9228C53.627 28.7345 53.4176 28.4395 53.3385 28.1005C53.2593 27.7615 53.3166 27.4053 53.4982 27.1076C53.6799 26.8098 53.9714 26.5941 54.311 26.5062C54.6506 26.4183 55.0113 26.4653 55.3165 26.637C55.5792 26.7794 55.7865 27.0045 55.9058 27.2767C56.0251 27.5489 56.0496 27.8527 55.9755 28.1403C55.9013 28.4278 55.7327 28.6827 55.4963 28.8647C55.2598 29.0468 54.969 29.1455 54.6697 29.1455L54.6715 29.1473Z" fill="#333333"/>
<path d="M31.1123 43.3313C30.9534 43.3312 30.7957 43.3029 30.6469 43.2476C30.3894 43.1534 30.1669 42.9835 30.0093 42.7607C29.8517 42.5378 29.7663 42.2726 29.7646 42.0005C29.7646 41.8423 29.7932 41.6854 29.8491 41.5372C29.8832 41.4464 29.9192 41.3591 29.9569 41.2664V41.2504C30.0215 41.0834 30.1193 40.9309 30.2444 40.802C30.3695 40.6732 30.5195 40.5705 30.6854 40.5002C30.8513 40.4299 31.0297 40.3933 31.2101 40.3926C31.3905 40.3919 31.5693 40.4272 31.7357 40.4962C31.9021 40.5653 32.0528 40.6668 32.1789 40.7947C32.3051 40.9227 32.404 41.0744 32.4699 41.2409C32.5357 41.4075 32.5672 41.5854 32.5624 41.7642C32.5576 41.9431 32.5167 42.1191 32.442 42.2819V42.2998C32.4186 42.3532 32.3971 42.4067 32.3755 42.4619C32.2795 42.7172 32.107 42.9374 31.8812 43.0928C31.6555 43.2482 31.3872 43.3314 31.1123 43.3313Z" fill="#333333"/>
<path d="M31.2451 43.0056C30.8878 43.0042 30.5456 42.8627 30.2931 42.612C30.0406 42.3613 29.8984 42.0218 29.8975 41.6676C29.8983 41.4837 29.9369 41.3018 30.0107 41.1331L30.0484 41.0529C30.1959 40.73 30.4667 40.4783 30.8014 40.3534C31.136 40.2284 31.507 40.2404 31.8327 40.3866C32.1584 40.5328 32.4122 40.8014 32.5382 41.1332C32.6643 41.465 32.6522 41.8328 32.5047 42.1557C32.4939 42.1771 32.485 42.1985 32.4742 42.2181C32.3676 42.4528 32.1949 42.6519 31.9768 42.7916C31.7588 42.9313 31.5047 43.0056 31.2451 43.0056Z" fill="#333333"/>
<path d="M54.6765 29.1516C54.4874 29.1517 54.3006 29.1116 54.1284 29.0341L54.0727 29.0091C54.0242 28.9842 53.9757 28.9557 53.929 28.9254C53.9199 28.9205 53.9115 28.9145 53.9038 28.9076C53.6183 28.7126 53.4194 28.4161 53.3487 28.0796C53.2779 27.7431 53.3407 27.3925 53.524 27.1006C53.7072 26.8088 53.9968 26.5983 54.3326 26.5127C54.6684 26.4272 55.0245 26.4733 55.327 26.6414L55.3485 26.6538C55.6044 26.8015 55.8041 27.0285 55.917 27.2999C56.0299 27.5712 56.0497 27.8718 55.9733 28.1554C55.8969 28.439 55.7285 28.6898 55.4942 28.8692C55.2599 29.0486 54.9725 29.1466 54.6765 29.1481V29.1516Z" fill="#333333"/>
<path d="M31.0447 62.513C30.7847 62.5131 30.5301 62.4386 30.3118 62.2986C30.0934 62.1585 29.9205 61.959 29.8139 61.7238C29.7642 61.6145 29.7204 61.5027 29.6827 61.3888C29.5735 61.0515 29.6038 60.6849 29.7668 60.3696C29.9298 60.0543 30.2124 59.816 30.5524 59.707C30.7209 59.6532 30.8984 59.6328 31.0748 59.647C31.2513 59.6612 31.4231 59.7097 31.5807 59.7897C31.7382 59.8698 31.8782 59.9799 31.9929 60.1136C32.1075 60.2474 32.1944 60.4022 32.2486 60.5693C32.2559 60.5899 32.2643 60.6101 32.2738 60.6299C32.3464 60.7899 32.3865 60.9625 32.3917 61.1379C32.397 61.3133 32.3673 61.488 32.3044 61.652C32.2415 61.816 32.1465 61.966 32.025 62.0936C31.9036 62.2212 31.7579 62.3238 31.5964 62.3955C31.423 62.4731 31.2349 62.5132 31.0447 62.513Z" fill="#333333"/>
<path d="M30.9454 62.2395C30.6524 62.2393 30.3674 62.1445 30.1336 61.9692C29.8998 61.794 29.73 61.548 29.6499 61.2685C29.6193 61.167 29.5978 61.0904 29.578 60.9924C29.5426 60.8204 29.5417 60.6432 29.5754 60.4709C29.6091 60.2986 29.6766 60.1346 29.7742 59.9882C29.8719 59.8418 29.9976 59.7158 30.1443 59.6176C30.291 59.5194 30.4557 59.4508 30.6292 59.4157C30.8026 59.3806 30.9813 59.3797 31.1551 59.4131C31.3289 59.4465 31.4943 59.5135 31.642 59.6102C31.7897 59.707 31.9167 59.8317 32.0157 59.9771C32.1148 60.1226 32.184 60.2859 32.2194 60.4579V60.4864V60.5149V60.5327C32.2535 60.6485 32.271 60.7685 32.2715 60.8891C32.2714 61.1799 32.1758 61.4627 31.9991 61.6948C31.8224 61.9269 31.5743 62.0956 31.2922 62.1754C31.1799 62.2115 31.0633 62.233 30.9454 62.2395Z" fill="#333333"/>
<path d="M30.8737 61.9011C30.5481 61.9006 30.2336 61.7833 29.9885 61.5707C29.7434 61.3581 29.5843 61.0648 29.5404 60.7449C29.5296 60.6843 29.5224 60.6326 29.517 60.5774C29.5117 60.5222 29.517 60.4901 29.517 60.4473C29.4973 60.093 29.6203 59.7453 29.859 59.4808C30.0978 59.2164 30.4327 59.0568 30.7901 59.0372C31.1475 59.0176 31.4982 59.1396 31.7649 59.3763C32.0316 59.613 32.1926 59.9451 32.2124 60.2995L32.2249 60.385C32.2334 60.444 32.2376 60.5035 32.2375 60.5632C32.2374 60.8863 32.1192 61.1985 31.9048 61.4419C31.6904 61.6853 31.3943 61.8434 31.0713 61.8869C31.0059 61.8967 30.9398 61.9015 30.8737 61.9011Z" fill="#333333"/>
<path d="M31.4449 63.0541C31.1296 63.0547 30.8241 62.945 30.5824 62.7441C30.4774 62.6581 30.3795 62.564 30.2895 62.4626C30.114 62.2109 30.0284 61.9082 30.0463 61.6027C30.0642 61.2972 30.1847 61.0064 30.3885 60.7766C30.5923 60.5467 30.8677 60.3911 31.171 60.3343C31.4743 60.2776 31.7881 60.323 32.0623 60.4634C32.3366 60.6038 32.5556 60.8311 32.6846 61.1092C32.8135 61.3872 32.845 61.7 32.7741 61.9979C32.7031 62.2957 32.5337 62.5614 32.2929 62.7528C32.052 62.9442 31.7535 63.0503 31.4449 63.0541Z" fill="#333333"/>
<path d="M31.2972 62.9126C31.1061 62.9127 30.9172 62.8723 30.7431 62.7943C30.5689 62.7163 30.4136 62.6023 30.2874 62.4601C30.1946 62.3571 30.1105 62.2469 30.0358 62.1305C29.8551 61.8336 29.7977 61.4788 29.8759 61.1408C29.9542 60.8029 30.1618 60.5083 30.455 60.3194C30.7482 60.1304 31.1041 60.0619 31.4473 60.1282C31.7905 60.1945 32.0943 60.3906 32.2945 60.6749C32.2945 60.6838 32.3053 60.6891 32.3089 60.6909C32.5449 60.9571 32.6649 61.3052 32.6423 61.659C32.6197 62.0127 32.4565 62.3431 32.1885 62.5776C31.943 62.7941 31.6257 62.9133 31.2972 62.9126Z" fill="#333333"/>
<path d="M31.5944 63.1618C31.3498 63.1618 31.1099 63.0952 30.9008 62.9694C30.7936 62.9059 30.6915 62.8344 30.5953 62.7556C30.3286 62.5292 30.1615 62.2085 30.1296 61.8618C30.0977 61.5151 30.2036 61.1698 30.4246 60.8993C30.6457 60.6288 30.9645 60.4545 31.3132 60.4136C31.6618 60.3726 32.0129 60.4682 32.2915 60.68C32.4898 60.8005 32.6536 60.9694 32.7672 61.1706C32.8808 61.3718 32.9403 61.5986 32.9402 61.8292C32.9404 62.0717 32.8733 62.3096 32.7462 62.5169C32.6262 62.7133 32.4572 62.8759 32.2554 62.9889C32.0537 63.1018 31.826 63.1614 31.5944 63.1618Z" fill="#333333"/>
<path d="M31.1611 62.735C30.9354 62.7356 30.7132 62.6797 30.515 62.5726C30.3168 62.4655 30.1491 62.3105 30.0273 62.1221C29.9536 62.0078 29.8875 61.8887 29.8296 61.7658C29.6778 61.4447 29.6609 61.077 29.7826 60.7435C29.9042 60.4101 30.1545 60.1382 30.4783 59.9877C30.8021 59.8372 31.173 59.8204 31.5093 59.9411C31.8456 60.0617 32.1198 60.3098 32.2716 60.6309C32.2775 60.6437 32.2841 60.6562 32.2913 60.6683C32.4235 60.8701 32.4984 61.1036 32.508 61.3441C32.5176 61.5846 32.4615 61.8232 32.3458 62.0348C32.2301 62.2463 32.059 62.423 31.8505 62.5463C31.642 62.6695 31.4038 62.7347 31.1611 62.735Z" fill="#333333"/>
<path d="M54.6746 29.1496C54.4532 29.1493 54.2353 29.0948 54.0403 28.991L54.0097 28.9785C53.8481 28.9071 53.7022 28.8047 53.5805 28.6774C53.4587 28.55 53.3635 28.4001 53.3001 28.2362C53.1723 27.9053 53.1822 27.5375 53.3278 27.2139C53.4734 26.8902 53.7427 26.6371 54.0765 26.5103C54.2417 26.4475 54.4179 26.4177 54.5948 26.4224C54.7717 26.4271 54.946 26.4663 55.1076 26.5377C55.1864 26.5699 55.2633 26.6068 55.3376 26.6482C55.3753 26.6696 55.4131 26.6927 55.449 26.7177C55.6844 26.8806 55.8612 27.1137 55.9536 27.3832C56.046 27.6526 56.0492 27.9443 55.9628 28.2157C55.8764 28.4871 55.7048 28.7241 55.4731 28.892C55.2414 29.06 54.9616 29.1502 54.6746 29.1496Z" fill="#333333"/>
<path d="M47.0581 32.6153C46.7612 32.6156 46.4725 32.5187 46.2368 32.3396C46.0011 32.1605 45.8317 31.9092 45.7549 31.6248C45.678 31.3404 45.6981 31.0388 45.8119 30.7669C45.9257 30.495 46.127 30.2679 46.3843 30.121L46.4167 30.1014L52.1145 26.8393C52.4817 26.6252 52.8798 26.4683 53.2951 26.3743C53.6444 26.2989 54.0096 26.3643 54.3104 26.5559C54.6111 26.7475 54.8228 27.0497 54.8988 27.3961C54.9748 27.7424 54.9089 28.1045 54.7157 28.4027C54.5224 28.7009 54.2176 28.9108 53.8683 28.9862C53.7237 29.0212 53.5855 29.0783 53.4586 29.1554L47.7302 32.4353C47.526 32.5528 47.2942 32.6149 47.0581 32.6153Z" fill="#333333"/>
<path d="M30.8018 44.958C30.6247 44.9583 30.4494 44.9239 30.2858 44.8568C30.1221 44.7897 29.9735 44.6913 29.8483 44.5672C29.7231 44.4431 29.6238 44.2957 29.5562 44.1334C29.4886 43.9712 29.4539 43.7974 29.4541 43.6218C29.4541 43.5773 29.4541 43.5345 29.4541 43.49C29.4797 43.2388 29.5763 42.9998 29.7326 42.8005C29.8196 42.6903 29.9233 42.5942 30.0399 42.5154C30.1799 42.4213 30.3366 42.3542 30.5017 42.3177C30.714 42.2699 30.935 42.2748 31.145 42.3319C31.4317 42.4075 31.6852 42.5749 31.866 42.8083C32.0467 43.0416 32.1444 43.3276 32.144 43.6218C32.1467 43.6651 32.1467 43.7086 32.144 43.7519C32.1118 44.0825 31.9564 44.3893 31.7082 44.6124C31.46 44.8354 31.1368 44.9587 30.8018 44.958Z" fill="#333333"/>
<path d="M54.4861 29.0638C54.3407 29.0642 54.1962 29.0407 54.0584 28.9943L54.0099 28.9818C53.6651 28.8873 53.3723 28.6609 53.1959 28.3523C53.0195 28.0437 52.974 27.6783 53.0693 27.3365C53.1646 26.9946 53.393 26.7043 53.7042 26.5294C54.0154 26.3545 54.3839 26.3093 54.7287 26.4038H54.7431C54.8173 26.4218 54.8905 26.4438 54.9623 26.4697C55.2629 26.5765 55.5155 26.7856 55.6752 27.0598C55.8348 27.334 55.891 27.6555 55.8338 27.967C55.7767 28.2785 55.6098 28.5597 55.363 28.7606C55.1161 28.9615 54.8054 29.0689 54.4861 29.0638Z" fill="#333333"/>
<path d="M54.2818 29.0018C54.2065 29.002 54.1314 28.9961 54.0571 28.984H54.0032C53.6759 28.9456 53.3742 28.7894 53.1552 28.5451C52.9363 28.3008 52.8154 27.9853 52.8155 27.6585C52.8149 27.6049 52.8179 27.5513 52.8245 27.4981C52.8672 27.1466 53.0488 26.8262 53.3293 26.6071C53.6099 26.3881 53.9666 26.2882 54.3213 26.3294C54.3973 26.3362 54.4728 26.3469 54.5477 26.3615C54.8519 26.4234 55.1253 26.5875 55.3217 26.826C55.5181 27.0646 55.6255 27.363 55.6258 27.671C55.6257 27.7601 55.6166 27.849 55.5989 27.9364C55.5361 28.237 55.3709 28.507 55.1311 28.701C54.8912 28.895 54.5913 29.0012 54.2818 29.0018Z" fill="#333333"/>
<path d="M53.667 29.0057C53.3498 29.0053 53.0428 28.8939 52.8003 28.6912C52.5577 28.4885 52.395 28.2074 52.3409 27.8975C52.3267 27.8217 52.3195 27.7448 52.3193 27.6677C52.3198 27.3532 52.4321 27.0489 52.6365 26.8083C52.841 26.5678 53.1244 26.4065 53.437 26.3529H53.4604C53.5376 26.3404 53.6149 26.3279 53.6904 26.3208H53.7047C53.8809 26.3037 54.0587 26.3212 54.228 26.3723C54.3974 26.4233 54.5549 26.5069 54.6916 26.6184C54.8284 26.7298 54.9416 26.8668 55.025 27.0217C55.1083 27.1765 55.16 27.3461 55.1773 27.5207C55.1945 27.6954 55.1769 27.8717 55.1254 28.0396C55.0739 28.2075 54.9895 28.3637 54.8771 28.4992C54.7648 28.6348 54.6266 28.7471 54.4704 28.8297C54.3143 28.9123 54.1432 28.9637 53.9671 28.9807L53.8988 28.9932C53.822 29.0034 53.7445 29.0076 53.667 29.0057Z" fill="#333333"/>
<path d="M53.9367 28.9785C53.5866 28.9782 53.2504 28.8429 52.9992 28.6012C52.748 28.3594 52.6016 28.0302 52.5908 27.6833V27.637C52.5911 27.2897 52.7276 26.9562 52.9713 26.7068C53.2151 26.4575 53.5471 26.3119 53.8971 26.3008H53.9133C53.987 26.3008 54.0607 26.3008 54.1307 26.3008C54.4756 26.3186 54.8003 26.4669 55.0381 26.7152C55.2758 26.9635 55.4083 27.2928 55.4083 27.6352C55.4083 27.6584 55.4083 27.6815 55.4083 27.7047C55.3904 28.0463 55.241 28.368 54.991 28.6037C54.7409 28.8394 54.4092 28.971 54.0643 28.9714H53.9385L53.9367 28.9785Z" fill="#333333"/>
<path d="M32.5769 41.0768C32.3091 41.077 32.0473 40.998 31.8249 40.85C31.6025 40.7019 31.4297 40.4915 31.3285 40.2457C31.2273 39.9998 31.2022 39.7296 31.2565 39.4696C31.3109 39.2095 31.4421 38.9715 31.6335 38.7857L31.6461 38.7732L31.736 38.6841C31.9962 38.441 32.3431 38.3104 32.7005 38.3209C33.0578 38.3314 33.3963 38.4823 33.6415 38.7403C33.8867 38.9983 34.0185 39.3423 34.0079 39.6966C33.9973 40.0509 33.8451 40.3866 33.5849 40.6297L33.5203 40.6938C33.2686 40.9392 32.9298 41.0768 32.5769 41.0768Z" fill="#333333"/>
<path d="M32.6581 40.9993C32.3869 41 32.1217 40.9196 31.8974 40.7686C31.673 40.6176 31.4998 40.4029 31.4004 40.1527C31.301 39.9025 31.2801 39.6284 31.3403 39.3663C31.4006 39.1041 31.5392 38.866 31.7381 38.6832C32.0508 38.3904 32.3963 38.134 32.7677 37.9189C32.791 37.9064 32.8144 37.8922 32.8396 37.8815C33.1525 37.73 33.5124 37.7046 33.8438 37.8105C34.1753 37.9163 34.4525 38.1453 34.6175 38.4493C34.7825 38.7534 34.8223 39.109 34.7287 39.4415C34.6351 39.7741 34.4153 40.0578 34.1153 40.2332C33.9211 40.3485 33.7403 40.4847 33.5763 40.6394C33.3278 40.8713 32.9993 41.0001 32.6581 40.9993Z" fill="#333333"/>
<path d="M12.1396 67.9531C5.44268 65.6245 2.0394 61.6248 2.79588 56.9766C3.15526 54.8155 4.29627 52.576 6.14167 50.3989C6.03497 50.3686 5.93239 50.3255 5.8362 50.2706C5.11745 49.859 4.64487 49.1357 4.46698 48.2324C2.07893 50.9173 0.592915 53.7554 0.134712 56.5472C-0.363022 59.6258 0.485102 62.5566 2.59104 65.0383C4.51549 67.2956 7.50729 69.1752 11.2448 70.474C11.4117 70.5325 11.5887 70.5578 11.7655 70.5485C11.9423 70.5392 12.1155 70.4955 12.2753 70.4198C12.4351 70.3441 12.5782 70.238 12.6966 70.1074C12.815 69.9769 12.9063 69.8245 12.9653 69.6589C13.0243 69.4934 13.0498 69.318 13.0404 69.1427C13.031 68.9674 12.9869 68.7956 12.9106 68.6372C12.8343 68.4788 12.7272 68.3368 12.5955 68.2194C12.4639 68.1021 12.3102 68.0115 12.1432 67.9531H12.1396Z" fill="#333333"/>
<path d="M58.3188 37.4941L58.3278 40.6226C61.8515 42.9726 63.4579 46.1349 62.8757 49.6714C62.3115 53.1082 60.0115 56.6001 56.2273 59.766C52.364 63.0014 47.2249 65.6578 41.3869 67.4501C41.0782 67.5441 40.8137 67.7448 40.6417 68.0158C40.4697 68.2867 40.4015 68.61 40.4496 68.9266C40.4977 69.2432 40.6589 69.5322 40.9038 69.7409C41.1487 69.9496 41.4611 70.0642 41.784 70.0637C41.9193 70.0638 42.0538 70.0434 42.1829 70.0032C55.0323 66.0587 64.1982 58.2445 65.5423 50.1008C66.3796 45.0214 63.7436 40.448 58.3188 37.4941Z" fill="#333333"/>
<path d="M25.0676 72.5796C22.1698 72.5896 19.2773 72.3355 16.4264 71.8206C16.0749 71.7554 15.764 71.5544 15.562 71.2619C15.36 70.9694 15.2834 70.6093 15.3492 70.2608C15.4149 69.9123 15.6176 69.604 15.9127 69.4037C16.2077 69.2034 16.5709 69.1275 16.9223 69.1927C20.0042 69.7449 23.1355 69.979 26.2661 69.8911H26.2966C26.6541 69.8871 26.9984 70.024 27.254 70.2718C27.5096 70.5195 27.6555 70.8578 27.6596 71.2122C27.6636 71.5666 27.5255 71.908 27.2756 72.1615C27.0258 72.4149 26.6846 72.5595 26.3272 72.5635C25.9043 72.5742 25.4844 72.5796 25.0676 72.5796Z" fill="#333333"/>
<path d="M8.80654 71.9639C8.49572 71.9655 8.19393 71.8605 7.95227 71.6666C7.71061 71.4728 7.54395 71.2022 7.48052 70.9005C7.41708 70.5988 7.46077 70.2846 7.60419 70.0112C7.74761 69.7378 7.98193 69.5219 8.26748 69.4002L10.1254 68.6145L9.27013 66.6548C9.12716 66.328 9.12096 65.9583 9.25289 65.6271C9.38482 65.2958 9.64407 65.03 9.97361 64.8883C10.3032 64.7465 10.676 64.7404 11.0101 64.8712C11.3442 65.002 11.6122 65.259 11.7552 65.5858L13.1442 68.7784C13.2854 69.104 13.2905 69.4719 13.1584 69.8012C13.0264 70.1306 12.7679 70.3945 12.4398 70.5351L9.3474 71.8553C9.17679 71.9287 8.99252 71.9657 8.80654 71.9639Z" fill="#333333"/>
<path d="M30.6314 30.585C30.4857 30.3358 30.2625 30.1402 29.9953 30.0273L29.7725 32.6267L30.1318 32.4183C30.2867 32.331 30.4226 32.2143 30.5316 32.0747C30.6407 31.935 30.7208 31.7754 30.7672 31.6049C30.8137 31.4344 30.8256 31.2565 30.8023 31.0815C30.7789 30.9064 30.7209 30.7377 30.6314 30.585Z" fill="#333333"/>
<path d="M31.6876 19.9996C31.8671 19.6929 31.9164 19.3281 31.8247 18.9854C31.7331 18.6426 31.508 18.35 31.1989 18.1717L31.0192 18.0684L30.8018 20.6321C30.9859 20.5943 31.16 20.5184 31.3127 20.4095C31.4653 20.3005 31.5931 20.1608 31.6876 19.9996Z" fill="#333333"/>
<path d="M31.0981 21.898C31.0046 21.737 30.8778 21.5974 30.7261 21.4883L30.5303 23.767L30.6039 23.7242C30.7574 23.6365 30.8919 23.5197 30.9998 23.3805C31.1077 23.2412 31.1869 23.0823 31.2328 22.9127C31.2787 22.7431 31.2904 22.5662 31.2673 22.3921C31.2442 22.218 31.1867 22.0501 31.0981 21.898Z" fill="#333333"/>
<path d="M31.4037 28.2934C31.5832 27.9867 31.6325 27.6219 31.5408 27.2791C31.4492 26.9364 31.2241 26.6437 30.915 26.4655L30.3274 26.127L30.083 28.9472C30.133 28.9543 30.1834 28.9579 30.2339 28.9579C30.4706 28.9586 30.7032 28.8975 30.9085 28.7809C31.1138 28.6642 31.2846 28.4961 31.4037 28.2934Z" fill="#333333"/>
<path d="M56.8282 37.7654L56.8048 29.5006C56.8048 28.2196 56.2657 27.1845 55.3673 26.6607H55.3565L31.4617 12.8906L31.2101 15.8356L51.2093 27.3591L33.449 37.5249L29.5444 35.2765L29.2929 38.2215L31.1616 39.2905C30.6015 39.9597 30.1598 40.7181 29.8553 41.5336L29.0485 41.0686L28.7969 44.0153L29.451 44.3913L29.4689 50.5182C29.3582 50.3724 29.218 50.2511 29.0575 50.1619L28.3082 49.729L28.0602 52.6134C28.1661 52.6387 28.2747 52.6518 28.3836 52.6526C28.5962 52.6523 28.8057 52.6022 28.995 52.5062C29.1843 52.4102 29.3479 52.2711 29.4725 52.1003L29.4833 55.9254L29.4923 59.0735L27.6002 57.9831L27.3486 60.9281L30.9424 63.0002L30.9945 63.0251C31.3974 63.2444 31.8502 63.3578 32.3098 63.3547C32.9692 63.342 33.6136 63.1577 34.1786 62.8202L51.6693 52.8076L52.1725 52.519L52.2084 52.4994L53.5201 51.7493C55.4194 50.6536 56.8569 48.1986 56.8569 46.0286L56.8282 37.7654ZM32.1571 48.4551L32.1445 43.6715V43.6234C32.1445 43.5788 32.1445 43.5307 32.1445 43.4826V43.4719C32.1445 43.4025 32.1571 43.3294 32.1679 43.251C32.1786 43.1726 32.2002 43.0729 32.2218 42.9784C32.2218 42.9357 32.2397 42.8929 32.2523 42.8484C32.4772 42.0359 32.9106 41.295 33.5101 40.698L33.5676 40.641C33.7317 40.4863 33.9125 40.3501 34.1067 40.2348L34.1426 40.2152L53.4464 29.1692C53.5542 29.1051 53.6695 29.0543 53.7896 29.0177L53.8274 29.0053H53.8849H53.9765H53.9909C54.0716 29.1715 54.1075 29.3557 54.0951 29.5398L54.1167 37.0225L35.192 47.8547L32.1463 49.5989L32.1571 48.4551ZM52.185 49.4279L50.9146 50.1548L50.8697 50.1779L34.6978 59.4423L32.8435 60.5112C32.6847 60.6206 32.4976 60.6824 32.3044 60.6894C32.3008 60.6845 32.2977 60.6791 32.2954 60.6734L32.2829 60.6449C32.2755 60.6319 32.2694 60.6181 32.2649 60.6039C32.2649 60.5879 32.2559 60.57 32.2505 60.5522V60.5344C32.2468 60.5175 32.242 60.5008 32.2361 60.4845L32.2254 60.4008L32.2128 60.3188C32.2128 60.269 32.2128 60.2155 32.2128 60.1621L32.1912 52.6793L51.1159 41.8471L54.1616 40.1029L54.1796 46.0571C54.1616 47.2347 53.2344 48.8239 52.185 49.4279Z" fill="#333333"/>
<path d="M25.0226 56.4998L23.4216 55.5787V50.0254L25.47 51.1977L25.7216 48.2563L23.4342 46.9361V40.9303L26.2104 42.5338L26.4637 39.5888L23.5258 37.8962C23.7524 37.0448 24.2076 36.2702 24.8429 35.655L26.7135 36.7239L27.2076 31.0014L24.6579 32.4606L20.0165 29.7881L25.6839 26.5456L27.5005 27.5914L27.9659 22.1539L25.6893 23.4563L20.4783 20.4543L25.1592 17.7676C25.2055 17.8039 25.2541 17.8372 25.3047 17.8674L28.1887 19.5279L28.4403 16.5829L27.8365 16.2265L28.5032 15.8453L28.7745 12.6758C28.5396 12.7627 28.3125 12.8688 28.0953 12.9929L8.75371 24.0745L8.71238 24.0995H8.69801C8.69386 24.1003 8.68958 24.1003 8.68543 24.0995C8.65848 24.1155 8.63152 24.1315 8.60637 24.1493L8.57762 24.1672C8.53845 24.1918 8.50067 24.2186 8.46441 24.2473C6.32254 25.6851 5.43848 27.3028 5.43848 29.7703L5.4852 46.2965C5.4852 47.5739 6.02426 48.6126 6.9227 49.1382L24.7693 59.4216L25.0226 56.4998ZM17.7866 21.99L17.8225 22.0132L22.9957 24.9938L17.3248 28.2364L12.1139 25.2343L17.7866 21.99ZM12.8847 49.4999L10.6764 48.226L8.29012 46.8524C8.19452 46.6866 8.15368 46.4954 8.17332 46.3054L8.16074 41.276L12.8955 43.9876L12.8847 49.4999ZM12.8973 40.9036L8.14816 38.1849L8.13199 32.1096L12.9045 34.8604L12.8973 40.9036ZM13.9107 31.1849C13.7418 31.4722 13.5911 31.7697 13.4597 32.0757L8.16074 29.0399C8.27754 28.101 8.65848 27.4631 9.49043 26.8164L14.8307 29.8933C14.4818 30.2926 14.1736 30.7253 13.9107 31.1849ZM20.7389 54.0198L15.589 51.0516V45.5287L20.7389 48.4826V54.0198ZM20.7514 45.3933L15.5998 42.4447V36.4122L20.7496 39.3785L20.7514 45.3933ZM21.7038 35.3664C21.4912 35.734 21.3109 36.1191 21.1647 36.5173L15.828 33.444C15.9404 33.1238 16.083 32.8148 16.2539 32.5211C16.5191 32.0542 16.8589 31.633 17.2601 31.274L22.4711 34.2778C22.1793 34.6168 21.9189 34.9811 21.693 35.3664H21.7038Z" fill="#333333"/>
<path d="M56.0446 9.40325C56.0051 9.40325 55.9674 9.40325 55.9278 9.40325L49.725 8.88124C49.5451 8.87119 49.369 8.82547 49.2072 8.74677C49.0454 8.66807 48.9012 8.558 48.7831 8.42306C48.6649 8.28812 48.5753 8.13106 48.5195 7.96117C48.4636 7.79128 48.4427 7.61201 48.458 7.43397C48.4732 7.25592 48.5244 7.08272 48.6083 6.92462C48.6923 6.76651 48.8074 6.6267 48.9468 6.51347C49.0862 6.40024 49.2471 6.31589 49.42 6.26539C49.5928 6.2149 49.7742 6.1993 49.9532 6.21951L56.156 6.74153C56.5135 6.75617 56.8504 6.911 57.0927 7.17195C57.335 7.43289 57.4628 7.77858 57.448 8.13296C57.4332 8.48735 57.2771 8.8214 57.0139 9.06163C56.7507 9.30186 56.4021 9.42859 56.0446 9.41394V9.40325Z" fill="#333333"/>
<path d="M68.3564 72.3951H68.2432L26.8863 68.9121C26.7099 68.8973 26.5381 68.8481 26.3809 68.7675C26.2236 68.6869 26.084 68.5763 25.9698 68.4421C25.8557 68.3079 25.7693 68.1528 25.7157 67.9855C25.6621 67.8182 25.6422 67.6421 25.6572 67.4672L30.4764 11.0828C30.4914 10.9079 30.5409 10.7376 30.6222 10.5817C30.7036 10.4258 30.8151 10.2873 30.9504 10.1742C31.0858 10.061 31.2422 9.97537 31.411 9.92218C31.5797 9.869 31.7573 9.8493 31.9337 9.8642L73.2852 13.3419C73.6411 13.3718 73.9705 13.5406 74.201 13.8112C74.4314 14.0818 74.5441 14.4321 74.5142 14.785L69.695 71.1712C69.6663 71.5047 69.5125 71.8154 69.264 72.042C69.0155 72.2686 68.6904 72.3946 68.3528 72.3951H68.3564ZM28.4657 66.3626L67.1327 69.614L71.7237 15.8914L33.0478 12.6399L28.4657 66.3626Z" fill="#333333"/>
<path d="M62.4389 82.2088C62.2412 82.2088 62.0436 82.1999 61.8441 82.1839L31.5201 79.6291C29.6997 79.4776 28.0146 78.6154 26.8352 77.2323C25.6558 75.8491 25.0788 74.0581 25.231 72.2532L30.8858 6.29447C31.0403 4.49094 31.911 2.82213 33.3064 1.65508C34.7018 0.488039 36.5076 -0.0816535 38.3266 0.0713083L68.6579 2.62614C70.4762 2.77938 72.1587 3.6422 73.3357 5.02496C74.5126 6.40772 75.0876 8.19725 74.9344 10.0002L69.285 75.9607C69.1393 77.6627 68.3553 79.2485 67.0879 80.4053C65.8204 81.5621 64.1616 82.2056 62.4389 82.2088ZM37.7408 2.71878C36.6924 2.72119 35.683 3.11285 34.9114 3.81658C34.1397 4.5203 33.6619 5.48506 33.5721 6.52073L27.9263 72.4777C27.8337 73.5748 28.1837 74.6635 28.8995 75.5051C29.6152 76.3467 30.6384 76.8726 31.7447 76.9673L62.0669 79.5204C62.6147 79.5673 63.1665 79.5068 63.6907 79.3423C64.215 79.1778 64.7014 78.9125 65.1222 78.5616C65.543 78.2107 65.89 77.7811 66.1433 77.2972C66.3967 76.8134 66.5514 76.2848 66.5987 75.7416L72.248 9.77573C72.3411 8.67873 71.9913 7.58995 71.2753 6.7485C70.5594 5.90704 69.5359 5.3817 68.4297 5.28786L38.0984 2.73481C37.978 2.72412 37.8594 2.71878 37.7408 2.71878Z" fill="#333333"/>
</g>
<defs>
<clipPath id="clip0_749_591">
<rect width="75" height="82" fill="white" transform="translate(0.236328 0.408203)"/>
</clipPath>
</defs>
</svg>
