<svg width="76" height="83" viewBox="0 0 76 83" fill="none" xmlns="http://www.w3.org/2000/svg">
<path d="M24.8573 39.3079L15.6172 55.9821C17.8241 57.5643 21.7495 60.7287 31.9643 60.7287C42.1792 60.7287 46.9702 57.5643 49.2297 55.9821L39.229 39.3079M24.8573 39.3079H39.229M24.8573 39.3079C19.3401 30.5449 19.813 22.9989 22.8081 19.3477H25.5012C25.291 22.0253 26.2894 27.3805 31.9643 27.3805C37.6393 27.3805 39.058 22.0253 39.058 19.3477H41.2782C44.3784 23.8103 44.1157 30.6666 39.229 39.3079" stroke="black" stroke-width="2.5" stroke-linecap="round" stroke-linejoin="bevel"/>
<rect x="22.9688" y="38.123" width="17.9928" height="4.08498" rx="1.75" fill="#ECF1FF" stroke="black" stroke-width="2.5"/>
<line x1="25.1865" y1="19.0703" x2="38.9009" y2="19.0703" stroke="black" stroke-width="2.5"/>
<path d="M12.8976 68.1798C6.19735 65.8558 2.79237 61.864 3.54923 57.2249C3.90879 55.0681 5.05037 52.833 6.89668 50.6602C6.78994 50.63 6.68731 50.587 6.59106 50.5322C5.87195 50.1215 5.39914 49.3995 5.22116 48.498C2.83192 51.1776 1.34517 54.0101 0.886734 56.7964C0.388752 59.869 1.2373 62.7939 3.34429 65.2708C5.2697 67.5237 8.26299 69.3996 12.0024 70.6958C12.1694 70.7542 12.3464 70.7795 12.5233 70.7702C12.7002 70.7609 12.8735 70.7172 13.0334 70.6417C13.1932 70.5661 13.3365 70.4602 13.4549 70.3299C13.5734 70.1996 13.6647 70.0475 13.7237 69.8823C13.7827 69.7171 13.8083 69.542 13.7989 69.3671C13.7895 69.1921 13.7454 69.0207 13.669 68.8626C13.5926 68.7045 13.4855 68.5628 13.3538 68.4457C13.222 68.3285 13.0683 68.2382 12.9012 68.1798H12.8976Z" fill="#333333"/>
<path d="M59.1002 37.7812L59.1092 40.9036C62.6346 43.2489 64.2418 46.405 63.6594 49.9345C63.0949 53.3645 60.7937 56.8496 57.0076 60.0092C53.1424 63.2383 48.0008 65.8894 42.1598 67.6782C41.8509 67.7719 41.5864 67.9723 41.4142 68.2427C41.2421 68.5132 41.1739 68.8357 41.2221 69.1517C41.2702 69.4677 41.4315 69.7561 41.6765 69.9644C41.9215 70.1727 42.234 70.2871 42.5571 70.2866C42.6925 70.2867 42.8271 70.2663 42.9562 70.2262C55.8121 66.2895 64.9825 58.4907 66.3273 50.3631C67.165 45.2937 64.5277 40.7293 59.1002 37.7812Z" fill="#333333"/>
<path d="M25.8322 72.7975C22.933 72.8074 20.039 72.5539 17.1867 72.04C16.8351 71.9749 16.524 71.7743 16.3219 71.4824C16.1197 71.1905 16.0432 70.8311 16.109 70.4833C16.1748 70.1355 16.3775 69.8278 16.6727 69.6279C16.9679 69.428 17.3313 69.3522 17.6829 69.4173C20.7663 69.9684 23.8992 70.202 27.0313 70.1143H27.0619C27.4195 70.1103 27.764 70.247 28.0198 70.4942C28.2755 70.7415 28.4214 71.0791 28.4255 71.4328C28.4295 71.7865 28.2914 72.1272 28.0414 72.3802C27.7914 72.6331 27.45 72.7775 27.0924 72.7815C26.6694 72.7921 26.2493 72.7975 25.8322 72.7975Z" fill="#333333"/>
<path d="M9.56307 72.1842C9.2521 72.1857 8.95016 72.0809 8.70838 71.8874C8.4666 71.694 8.29986 71.4239 8.23639 71.1228C8.17292 70.8217 8.21664 70.5081 8.36012 70.2353C8.50361 69.9624 8.73806 69.747 9.02374 69.6255L10.8826 68.8413L10.0269 66.8854C9.88386 66.5593 9.87765 66.1904 10.0096 65.8598C10.1416 65.5291 10.401 65.2639 10.7307 65.1224C11.0604 64.981 11.4335 64.9748 11.7677 65.1054C12.102 65.2359 12.3702 65.4925 12.5132 65.8186L13.9029 69.0049C14.0442 69.3299 14.0493 69.697 13.9172 70.0257C13.785 70.3544 13.5265 70.6178 13.1982 70.7581L10.1042 72.0757C9.93351 72.149 9.74914 72.1859 9.56307 72.1842Z" fill="#333333"/>
<path d="M56.8248 9.74657C56.7852 9.74657 56.7475 9.74657 56.7079 9.74657L50.502 9.22558C50.322 9.21556 50.1458 9.16993 49.984 9.09138C49.8221 9.01284 49.6778 8.90298 49.5596 8.76831C49.4414 8.63364 49.3517 8.47688 49.2959 8.30733C49.24 8.13777 49.2191 7.95886 49.2343 7.78116C49.2496 7.60347 49.3008 7.43062 49.3848 7.27282C49.4688 7.11502 49.5839 6.97549 49.7234 6.86249C49.8629 6.74948 50.0239 6.66529 50.1968 6.6149C50.3698 6.5645 50.5512 6.54893 50.7303 6.56911L56.9363 7.09009C57.2939 7.10471 57.6309 7.25923 57.8733 7.51966C58.1158 7.78009 58.2436 8.1251 58.2289 8.47878C58.2141 8.83247 58.0578 9.16586 57.7945 9.40562C57.5312 9.64537 57.1824 9.77185 56.8248 9.75724V9.74657Z" fill="#333333"/>
<path d="M69.1423 72.6137H69.029L27.6515 69.1375C27.475 69.1227 27.3032 69.0737 27.1459 68.9932C26.9886 68.9127 26.8488 68.8024 26.7346 68.6684C26.6204 68.5345 26.534 68.3797 26.4804 68.2127C26.4267 68.0458 26.4068 67.87 26.4219 67.6954L31.2435 11.4222C31.2584 11.2476 31.308 11.0777 31.3894 10.9221C31.4707 10.7665 31.5823 10.6283 31.7177 10.5153C31.8531 10.4024 32.0097 10.3169 32.1785 10.2639C32.3473 10.2108 32.525 10.1911 32.7015 10.206L74.0736 13.6768C74.4297 13.7067 74.7592 13.8752 74.9898 14.1452C75.2204 14.4153 75.3331 14.7649 75.3033 15.1171L70.4817 71.3921C70.4529 71.725 70.299 72.035 70.0504 72.2612C69.8018 72.4873 69.4765 72.6131 69.1387 72.6137H69.1423ZM29.2318 66.593L67.918 69.838L72.5113 16.2213L33.8161 12.9763L29.2318 66.593Z" fill="#333333"/>
<path d="M63.2221 82.4082C63.0244 82.4082 62.8266 82.3993 62.6271 82.3833L32.2879 79.8335C30.4666 79.6823 28.7806 78.8219 27.6007 77.4415C26.4207 76.061 25.8434 74.2736 25.9957 72.4722L31.6532 6.64348C31.8079 4.84351 32.679 3.17798 34.0751 2.01324C35.4712 0.848498 37.2779 0.279928 39.0978 0.432588L69.4442 2.98238C71.2634 3.13532 72.9468 3.99644 74.1243 5.37648C75.3018 6.75651 75.8772 8.54251 75.7238 10.3419L70.0716 76.1724C69.9259 77.871 69.1415 79.4538 67.8734 80.6082C66.6053 81.7627 64.9456 82.405 63.2221 82.4082ZM38.5117 3.07484C37.4628 3.07725 36.4528 3.46813 35.6808 4.17047C34.9088 4.87281 34.4308 5.83567 34.3409 6.8693L28.6923 72.6962C28.5997 73.7912 28.9498 74.8777 29.6659 75.7177C30.3821 76.5577 31.4058 77.0825 32.5126 77.177L62.85 79.7251C63.3981 79.7719 63.9501 79.7115 64.4746 79.5473C64.9991 79.3832 65.4857 79.1184 65.9067 78.7682C66.3278 78.418 66.6749 77.9892 66.9284 77.5063C67.1819 77.0234 67.3367 76.4958 67.384 75.9537L73.0361 10.1179C73.1293 9.02305 72.7793 7.93641 72.063 7.09661C71.3467 6.25682 70.3227 5.73252 69.2159 5.63886L38.8695 3.09084C38.7491 3.08018 38.6304 3.07484 38.5117 3.07484Z" fill="#333333"/>
</svg>
