<svg width="76" height="83" viewBox="0 0 76 83" fill="none" xmlns="http://www.w3.org/2000/svg">
<path d="M18.1709 57.1472C22.6968 52.0169 27.2112 62.5805 31.9544 62.688C43.0623 62.9398 42.3433 55.8134 47.0749 55.6081C49.3378 55.51 50.2293 56.5316 49.3378 57.1472" stroke="black" stroke-width="2.5" stroke-linecap="round" stroke-linejoin="bevel"/>
<path d="M48.8244 61.4574C51.7045 60.6366 55.6132 57.4649 55.6132 53.1463C55.6132 46.2716 49.6473 46.4768 47.1786 36.524C45.2037 28.5617 44.71 24.2112 44.71 19.3887" stroke="black" stroke-width="2.5" stroke-linecap="round" stroke-linejoin="bevel"/>
<path d="M16.8768 61.4574C13.9967 60.6366 10.088 57.4649 10.088 53.1463C10.088 46.2716 16.0539 46.4768 18.5226 36.524C20.4975 28.5617 20.9912 24.2112 20.9912 19.3887" stroke="black" stroke-width="2.5" stroke-linecap="round" stroke-linejoin="bevel"/>
<path d="M12.8996 68.1798C6.1993 65.8558 2.79432 61.864 3.55119 57.2249C3.91074 55.0681 5.05233 52.833 6.89864 50.6602C6.79189 50.63 6.68926 50.587 6.59302 50.5322C5.87391 50.1215 5.40109 49.3995 5.22311 48.498C2.83388 51.1776 1.34712 54.0101 0.888687 56.7964C0.390705 59.869 1.23925 62.7939 3.34624 65.2708C5.27165 67.5237 8.26494 69.3996 12.0043 70.6958C12.1713 70.7542 12.3484 70.7795 12.5253 70.7702C12.7022 70.7609 12.8755 70.7172 13.0353 70.6417C13.1952 70.5661 13.3384 70.4602 13.4569 70.3299C13.5753 70.1996 13.6667 70.0475 13.7257 69.8823C13.7847 69.7171 13.8102 69.542 13.8008 69.3671C13.7915 69.1921 13.7473 69.0207 13.6709 68.8626C13.5946 68.7045 13.4875 68.5628 13.3557 68.4457C13.224 68.3285 13.0702 68.2382 12.9032 68.1798H12.8996Z" fill="#333333"/>
<path d="M59.1022 37.7812L59.1112 40.9036C62.6366 43.2489 64.2438 46.405 63.6613 49.9345C63.0968 53.3645 60.7957 56.8496 57.0096 60.0092C53.1444 63.2383 48.0027 65.8894 42.1618 67.6782C41.8529 67.7719 41.5883 67.9723 41.4162 68.2427C41.2441 68.5132 41.1759 68.8357 41.224 69.1517C41.2722 69.4677 41.4334 69.7561 41.6784 69.9644C41.9235 70.1727 42.236 70.2871 42.5591 70.2866C42.6944 70.2867 42.829 70.2663 42.9582 70.2262C55.814 66.2895 64.9845 58.4907 66.3292 50.3631C67.167 45.2937 64.5296 40.7293 59.1022 37.7812Z" fill="#333333"/>
<path d="M25.8342 72.7975C22.935 72.8074 20.041 72.5539 17.1887 72.04C16.837 71.9749 16.5259 71.7743 16.3238 71.4824C16.1217 71.1905 16.0451 70.8311 16.1109 70.4833C16.1767 70.1355 16.3795 69.8278 16.6747 69.6279C16.9698 69.428 17.3332 69.3522 17.6849 69.4173C20.7683 69.9684 23.9012 70.202 27.0333 70.1143H27.0638C27.4214 70.1103 27.766 70.247 28.0217 70.4942C28.2774 70.7415 28.4234 71.0791 28.4274 71.4328C28.4315 71.7865 28.2933 72.1272 28.0433 72.3802C27.7933 72.6331 27.452 72.7775 27.0944 72.7815C26.6713 72.7921 26.2512 72.7975 25.8342 72.7975Z" fill="#333333"/>
<path d="M9.56503 72.1842C9.25406 72.1857 8.95211 72.0809 8.71033 71.8874C8.46855 71.694 8.30181 71.4239 8.23834 71.1228C8.17488 70.8217 8.21859 70.5081 8.36208 70.2353C8.50557 69.9624 8.74001 69.747 9.02569 69.6255L10.8846 68.8413L10.0289 66.8854C9.88581 66.5593 9.87961 66.1904 10.0116 65.8598C10.1436 65.5291 10.403 65.2639 10.7327 65.1224C11.0624 64.981 11.4354 64.9748 11.7697 65.1054C12.104 65.2359 12.3721 65.4925 12.5152 65.8186L13.9048 69.0049C14.0461 69.3299 14.0512 69.697 13.9191 70.0257C13.787 70.3544 13.5284 70.6178 13.2001 70.7581L10.1062 72.0757C9.93547 72.149 9.7511 72.1859 9.56503 72.1842V72.1842Z" fill="#333333"/>
<path d="M56.8267 9.74657C56.7872 9.74657 56.7494 9.74657 56.7099 9.74657L50.504 9.22558C50.324 9.21556 50.1478 9.16993 49.9859 9.09138C49.824 9.01284 49.6797 8.90298 49.5615 8.76831C49.4434 8.63364 49.3537 8.47688 49.2978 8.30733C49.2419 8.13777 49.221 7.95886 49.2363 7.78116C49.2516 7.60347 49.3027 7.43062 49.3867 7.27282C49.4707 7.11502 49.5859 6.97549 49.7254 6.86249C49.8648 6.74948 50.0258 6.66529 50.1988 6.6149C50.3717 6.5645 50.5531 6.54893 50.7323 6.56911L56.9382 7.09009C57.2958 7.10471 57.6329 7.25923 57.8753 7.51966C58.1177 7.78009 58.2456 8.1251 58.2308 8.47878C58.216 8.83247 58.0598 9.16586 57.7965 9.40562C57.5332 9.64537 57.1843 9.77185 56.8267 9.75724V9.74657Z" fill="#333333"/>
<path d="M69.1443 72.6137H69.031L27.6535 69.1375C27.477 69.1227 27.3052 69.0737 27.1479 68.9932C26.9905 68.9127 26.8508 68.8024 26.7366 68.6684C26.6224 68.5345 26.536 68.3797 26.4823 68.2127C26.4287 68.0458 26.4088 67.87 26.4238 67.6954L31.2454 11.4222C31.2604 11.2476 31.31 11.0777 31.3913 10.9221C31.4727 10.7665 31.5843 10.6283 31.7197 10.5153C31.8551 10.4024 32.0116 10.3169 32.1804 10.2639C32.3492 10.2108 32.5269 10.1911 32.7034 10.206L74.0755 13.6768C74.4316 13.7067 74.7612 13.8752 74.9918 14.1452C75.2223 14.4153 75.3351 14.7649 75.3052 15.1171L70.4836 71.3921C70.4548 71.725 70.3009 72.035 70.0523 72.2612C69.8037 72.4873 69.4784 72.6131 69.1407 72.6137H69.1443ZM29.2337 66.593L67.92 69.838L72.5133 16.2213L33.818 12.9763L29.2337 66.593Z" fill="#333333"/>
<path d="M63.2241 82.4082C63.0263 82.4082 62.8286 82.3993 62.629 82.3833L32.2898 79.8335C30.4686 79.6823 28.7826 78.8219 27.6026 77.4415C26.4227 76.061 25.8453 74.2736 25.9976 72.4722L31.6552 6.64348C31.8098 4.84351 32.681 3.17798 34.0771 2.01324C35.4732 0.848498 37.2799 0.279928 39.0998 0.432588L69.4462 2.98238C71.2654 3.13532 72.9487 3.99644 74.1263 5.37648C75.3038 6.75651 75.8791 8.54251 75.7258 10.3419L70.0736 76.1724C69.9278 77.871 69.1435 79.4538 67.8754 80.6082C66.6073 81.7627 64.9476 82.405 63.2241 82.4082V82.4082ZM38.5137 3.07484C37.4648 3.07725 36.4548 3.46813 35.6828 4.17047C34.9108 4.87281 34.4327 5.83567 34.3429 6.8693L28.6943 72.6962C28.6016 73.7912 28.9518 74.8777 29.6679 75.7177C30.384 76.5577 31.4078 77.0825 32.5145 77.177L62.8519 79.7251C63.4 79.7719 63.9521 79.7115 64.4765 79.5473C65.001 79.3832 65.4877 79.1184 65.9087 78.7682C66.3297 78.418 66.6769 77.9892 66.9303 77.5063C67.1838 77.0234 67.3386 76.4958 67.3859 75.9537L73.0381 10.1179C73.1312 9.02305 72.7812 7.93641 72.0649 7.09661C71.3486 6.25682 70.3247 5.73252 69.2178 5.63886L38.8715 3.09084C38.751 3.08018 38.6324 3.07484 38.5137 3.07484Z" fill="#333333"/>
</svg>
