<svg width="114" height="10" viewBox="0 0 114 10" fill="none" xmlns="http://www.w3.org/2000/svg">
<path d="M6.10911 4.25383C6.10911 4.11783 6.08911 4.01783 6.04911 3.95383C6.01711 3.88183 5.95311 3.82983 5.85711 3.79783C5.76111 3.76583 5.62111 3.74983 5.43711 3.74983C5.26111 3.74983 5.02911 3.74983 4.74111 3.74983C4.38111 3.74983 4.09711 3.75383 3.88911 3.76183C3.68111 3.76983 3.52511 3.80983 3.42111 3.88183C3.31711 3.94583 3.24911 4.05783 3.21711 4.21783C3.19311 4.36983 3.18111 4.59383 3.18111 4.88983C3.18111 5.17783 3.19311 5.40183 3.21711 5.56183C3.24911 5.71383 3.31311 5.82583 3.40911 5.89783C3.51311 5.96983 3.66511 6.01383 3.86511 6.02983C4.07311 6.03783 4.35311 6.04183 4.70511 6.04183C4.98511 6.04183 5.21711 6.04183 5.40111 6.04183C5.58511 6.04183 5.73311 6.02583 5.84511 5.99383C5.95711 5.96183 6.03311 5.90183 6.07311 5.81383C6.12111 5.72583 6.14511 5.59783 6.14511 5.42983H7.45311C7.45311 5.46983 7.45311 5.50183 7.45311 5.52583C7.46111 5.54983 7.46511 5.58183 7.46511 5.62183C7.46511 5.96583 7.43311 6.23783 7.36911 6.43783C7.30511 6.63783 7.18511 6.79383 7.00911 6.90583C6.83311 7.00983 6.58511 7.07783 6.26511 7.10983C5.95311 7.14183 5.54511 7.15783 5.04111 7.15783C4.36111 7.15783 3.81311 7.14983 3.39711 7.13383C2.98111 7.10983 2.65711 7.02583 2.42511 6.88183C2.19311 6.72983 2.03711 6.49383 1.95711 6.17383C1.87711 5.85383 1.83711 5.39383 1.83711 4.79383C1.83711 4.41783 1.85711 4.09383 1.89711 3.82183C1.93711 3.54183 2.06111 3.29783 2.26911 3.08983C2.49311 2.88183 2.79711 2.76183 3.18111 2.72983C3.56511 2.68983 4.06911 2.66983 4.69311 2.66983C5.23711 2.66983 5.68111 2.68183 6.02511 2.70583C6.37711 2.72183 6.65311 2.78183 6.85311 2.88583C7.06111 2.98183 7.20511 3.13783 7.28511 3.35383C7.36511 3.56983 7.40511 3.86983 7.40511 4.25383H6.10911ZM0.433109 4.97383C0.433109 4.33383 0.541109 3.74983 0.757109 3.22183C0.981109 2.69383 1.28511 2.24183 1.66911 1.86583C2.05311 1.48983 2.50511 1.20183 3.02511 1.00183C3.54511 0.793828 4.10511 0.689828 4.70511 0.689828C5.31311 0.689828 5.87711 0.793828 6.39711 1.00183C6.91711 1.20183 7.36911 1.48983 7.75311 1.86583C8.13711 2.24183 8.43711 2.69383 8.65311 3.22183C8.87711 3.74183 8.98911 4.32583 8.98911 4.97383C8.98911 5.62183 8.87711 6.20983 8.65311 6.73783C8.43711 7.25783 8.13711 7.70583 7.75311 8.08183C7.36911 8.45783 6.91311 8.74983 6.38511 8.95783C5.86511 9.15783 5.30511 9.25783 4.70511 9.25783C4.10511 9.25783 3.54511 9.15783 3.02511 8.95783C2.50511 8.74983 2.05311 8.45783 1.66911 8.08183C1.28511 7.70583 0.981109 7.25383 0.757109 6.72583C0.541109 6.19783 0.433109 5.61383 0.433109 4.97383ZM1.00911 4.92583C1.00911 5.47783 1.10511 5.98183 1.29711 6.43783C1.48911 6.89383 1.74911 7.28583 2.07711 7.61383C2.41311 7.93383 2.80511 8.18583 3.25311 8.36983C3.70111 8.54583 4.18511 8.63383 4.70511 8.63383C5.22511 8.63383 5.70911 8.54583 6.15711 8.36983C6.60511 8.19383 6.99311 7.94583 7.32111 7.62583C7.65711 7.29783 7.92111 6.90583 8.11311 6.44983C8.30511 5.99383 8.40111 5.48583 8.40111 4.92583C8.40111 4.37383 8.30511 3.86983 8.11311 3.41383C7.92911 2.95783 7.66911 2.56983 7.33311 2.24983C7.00511 1.92183 6.61311 1.66983 6.15711 1.49383C5.70911 1.30983 5.22511 1.21783 4.70511 1.21783C4.18511 1.21783 3.69711 1.30983 3.24111 1.49383C2.79311 1.66983 2.40111 1.92183 2.06511 2.24983C1.73711 2.56983 1.47711 2.95783 1.28511 3.41383C1.10111 3.86983 1.00911 4.37383 1.00911 4.92583ZM19.3964 7.57783V9.16183H10.0004V7.18183C10.0004 6.60583 10.0764 6.16583 10.2284 5.86183C10.3804 5.55783 10.6164 5.33383 10.9364 5.18983C11.2644 5.04583 11.6844 4.95383 12.1964 4.91383C12.7084 4.86583 13.3244 4.81783 14.0444 4.76983C14.7244 4.72183 15.2644 4.68583 15.6644 4.66183C16.0724 4.62983 16.3844 4.58183 16.6004 4.51783C16.8164 4.45383 16.9564 4.36183 17.0204 4.24183C17.0924 4.11383 17.1284 3.92583 17.1284 3.67783C17.1284 3.45383 17.0884 3.28583 17.0084 3.17383C16.9364 3.06183 16.8084 2.98583 16.6244 2.94583C16.4484 2.89783 16.2084 2.87383 15.9044 2.87383C15.6004 2.87383 15.2244 2.87383 14.7764 2.87383C14.1604 2.87383 13.6684 2.88183 13.3004 2.89783C12.9324 2.91383 12.6684 2.98983 12.5084 3.12583C12.4204 3.19783 12.3564 3.27383 12.3164 3.35383C12.2844 3.42583 12.2604 3.50583 12.2444 3.59383C12.2284 3.68183 12.2204 3.77383 12.2204 3.86983C12.2204 3.96583 12.2204 4.06983 12.2204 4.18183H10.0004V3.61783C10.0004 3.04983 10.0564 2.60583 10.1684 2.28583C10.2884 1.96583 10.5324 1.72983 10.9004 1.57783C11.2764 1.41783 11.8124 1.32183 12.5084 1.28983C13.2044 1.24983 14.1284 1.22983 15.2804 1.22983C16.0244 1.22983 16.6564 1.24583 17.1764 1.27783C17.7044 1.30183 18.1324 1.39383 18.4604 1.55383C18.7964 1.70583 19.0364 1.94583 19.1804 2.27383C19.3324 2.59383 19.4084 3.05383 19.4084 3.65383C19.4084 4.39783 19.3004 4.97383 19.0844 5.38183C18.8764 5.78183 18.5284 6.02583 18.0404 6.11383C17.5844 6.20183 17.0884 6.27383 16.5524 6.32983C16.0244 6.37783 15.4684 6.40983 14.8844 6.42583C14.1804 6.44983 13.6444 6.48183 13.2764 6.52183C12.9164 6.55383 12.6564 6.60983 12.4964 6.68983C12.3364 6.76983 12.2444 6.88183 12.2204 7.02583C12.2044 7.16983 12.1964 7.35383 12.1964 7.57783H19.3964ZM23.0471 5.17783C23.0471 5.68183 23.0671 6.07383 23.1071 6.35383C23.1551 6.62583 23.2671 6.82983 23.4431 6.96583C23.6271 7.10183 23.8951 7.18583 24.2471 7.21783C24.6071 7.24183 25.0991 7.25383 25.7231 7.25383C26.3231 7.25383 26.7911 7.23783 27.1271 7.20583C27.4711 7.17383 27.7311 7.08983 27.9071 6.95383C28.0831 6.80983 28.1911 6.60183 28.2311 6.32983C28.2791 6.04983 28.3031 5.66183 28.3031 5.16583C28.3031 4.65383 28.2791 4.25383 28.2311 3.96583C28.1911 3.67783 28.0831 3.46583 27.9071 3.32983C27.7391 3.18583 27.4791 3.09783 27.1271 3.06583C26.7831 3.03383 26.3071 3.01783 25.6991 3.01783C25.0911 3.01783 24.6111 3.03383 24.2591 3.06583C23.9071 3.08983 23.6391 3.17383 23.4551 3.31783C23.2791 3.45383 23.1671 3.66583 23.1191 3.95383C23.0711 4.24183 23.0471 4.64983 23.0471 5.17783ZM20.6831 5.14183C20.6831 4.46983 20.7111 3.90583 20.7671 3.44983C20.8311 2.98583 20.9351 2.60583 21.0791 2.30983C21.2311 2.01383 21.4391 1.78583 21.7031 1.62583C21.9671 1.46583 22.2991 1.34983 22.6991 1.27783C23.1071 1.20583 23.5951 1.16583 24.1631 1.15783C24.7311 1.14183 25.3991 1.13383 26.1671 1.13383C26.8071 1.13383 27.3631 1.14983 27.8351 1.18183C28.3151 1.21383 28.7191 1.27783 29.0471 1.37383C29.3831 1.46983 29.6551 1.60983 29.8631 1.79383C30.0791 1.96983 30.2471 2.20583 30.3671 2.50183C30.4871 2.79783 30.5671 3.16183 30.6071 3.59383C30.6551 4.02583 30.6791 4.54183 30.6791 5.14183C30.6791 5.82983 30.6511 6.40983 30.5951 6.88183C30.5471 7.35383 30.4511 7.74183 30.3071 8.04583C30.1631 8.34183 29.9631 8.56983 29.7071 8.72983C29.4591 8.88983 29.1271 9.00983 28.7111 9.08983C28.3031 9.16183 27.8071 9.20183 27.2231 9.20983C26.6391 9.21783 25.9471 9.22183 25.1471 9.22183C24.4911 9.22183 23.9271 9.20983 23.4551 9.18583C22.9831 9.16183 22.5791 9.10583 22.2431 9.01783C21.9151 8.92183 21.6471 8.78583 21.4391 8.60983C21.2391 8.43383 21.0831 8.19383 20.9711 7.88983C20.8591 7.58583 20.7831 7.20983 20.7431 6.76183C20.7031 6.31383 20.6831 5.77383 20.6831 5.14183ZM41.0526 7.57783V9.16183H31.6566V7.18183C31.6566 6.60583 31.7326 6.16583 31.8846 5.86183C32.0366 5.55783 32.2726 5.33383 32.5926 5.18983C32.9206 5.04583 33.3406 4.95383 33.8526 4.91383C34.3646 4.86583 34.9806 4.81783 35.7006 4.76983C36.3806 4.72183 36.9206 4.68583 37.3206 4.66183C37.7286 4.62983 38.0406 4.58183 38.2566 4.51783C38.4726 4.45383 38.6126 4.36183 38.6766 4.24183C38.7486 4.11383 38.7846 3.92583 38.7846 3.67783C38.7846 3.45383 38.7446 3.28583 38.6646 3.17383C38.5926 3.06183 38.4646 2.98583 38.2806 2.94583C38.1046 2.89783 37.8646 2.87383 37.5606 2.87383C37.2566 2.87383 36.8806 2.87383 36.4326 2.87383C35.8166 2.87383 35.3246 2.88183 34.9566 2.89783C34.5886 2.91383 34.3246 2.98983 34.1646 3.12583C34.0766 3.19783 34.0126 3.27383 33.9726 3.35383C33.9406 3.42583 33.9166 3.50583 33.9006 3.59383C33.8846 3.68183 33.8766 3.77383 33.8766 3.86983C33.8766 3.96583 33.8766 4.06983 33.8766 4.18183H31.6566V3.61783C31.6566 3.04983 31.7126 2.60583 31.8246 2.28583C31.9446 1.96583 32.1886 1.72983 32.5566 1.57783C32.9326 1.41783 33.4686 1.32183 34.1646 1.28983C34.8606 1.24983 35.7846 1.22983 36.9366 1.22983C37.6806 1.22983 38.3126 1.24583 38.8326 1.27783C39.3606 1.30183 39.7886 1.39383 40.1166 1.55383C40.4526 1.70583 40.6926 1.94583 40.8366 2.27383C40.9886 2.59383 41.0646 3.05383 41.0646 3.65383C41.0646 4.39783 40.9566 4.97383 40.7406 5.38183C40.5326 5.78183 40.1846 6.02583 39.6966 6.11383C39.2406 6.20183 38.7446 6.27383 38.2086 6.32983C37.6806 6.37783 37.1246 6.40983 36.5406 6.42583C35.8366 6.44983 35.3006 6.48183 34.9326 6.52183C34.5726 6.55383 34.3126 6.60983 34.1526 6.68983C33.9926 6.76983 33.9006 6.88183 33.8766 7.02583C33.8606 7.16983 33.8526 7.35383 33.8526 7.57783H41.0526ZM51.9394 7.57783V9.16183H42.5434V7.18183C42.5434 6.60583 42.6194 6.16583 42.7714 5.86183C42.9234 5.55783 43.1594 5.33383 43.4794 5.18983C43.8074 5.04583 44.2274 4.95383 44.7394 4.91383C45.2514 4.86583 45.8674 4.81783 46.5874 4.76983C47.2674 4.72183 47.8074 4.68583 48.2074 4.66183C48.6154 4.62983 48.9274 4.58183 49.1434 4.51783C49.3594 4.45383 49.4994 4.36183 49.5634 4.24183C49.6354 4.11383 49.6714 3.92583 49.6714 3.67783C49.6714 3.45383 49.6314 3.28583 49.5514 3.17383C49.4794 3.06183 49.3514 2.98583 49.1674 2.94583C48.9914 2.89783 48.7514 2.87383 48.4474 2.87383C48.1434 2.87383 47.7674 2.87383 47.3194 2.87383C46.7034 2.87383 46.2114 2.88183 45.8434 2.89783C45.4754 2.91383 45.2114 2.98983 45.0514 3.12583C44.9634 3.19783 44.8994 3.27383 44.8594 3.35383C44.8274 3.42583 44.8034 3.50583 44.7874 3.59383C44.7714 3.68183 44.7634 3.77383 44.7634 3.86983C44.7634 3.96583 44.7634 4.06983 44.7634 4.18183H42.5434V3.61783C42.5434 3.04983 42.5994 2.60583 42.7114 2.28583C42.8314 1.96583 43.0754 1.72983 43.4434 1.57783C43.8194 1.41783 44.3554 1.32183 45.0514 1.28983C45.7474 1.24983 46.6714 1.22983 47.8234 1.22983C48.5674 1.22983 49.1994 1.24583 49.7194 1.27783C50.2474 1.30183 50.6754 1.39383 51.0034 1.55383C51.3394 1.70583 51.5794 1.94583 51.7234 2.27383C51.8754 2.59383 51.9514 3.05383 51.9514 3.65383C51.9514 4.39783 51.8434 4.97383 51.6274 5.38183C51.4194 5.78183 51.0714 6.02583 50.5834 6.11383C50.1274 6.20183 49.6314 6.27383 49.0954 6.32983C48.5674 6.37783 48.0114 6.40983 47.4274 6.42583C46.7234 6.44983 46.1874 6.48183 45.8194 6.52183C45.4594 6.55383 45.1994 6.60983 45.0394 6.68983C44.8794 6.76983 44.7874 6.88183 44.7634 7.02583C44.7474 7.16983 44.7394 7.35383 44.7394 7.57783H51.9394ZM56.1868 9.17383V1.16983H64.6708V3.04183H58.5988V4.61383H64.3588V6.41383H58.5988V9.17383H56.1868ZM68.0567 1.16983V9.17383H65.5967V1.16983H68.0567ZM74.9481 3.17383V9.17383H72.4881V3.17383H68.9001V1.16983H78.4761V3.17383H74.9481ZM86.3505 3.61783C86.3425 3.43383 86.3105 3.28983 86.2545 3.18583C86.1985 3.07383 86.0985 2.99383 85.9545 2.94583C85.8185 2.88983 85.6345 2.85383 85.4025 2.83783C85.1785 2.82183 84.8865 2.81383 84.5265 2.81383C84.4625 2.81383 84.4105 2.81383 84.3705 2.81383C84.3305 2.81383 84.2785 2.81783 84.2145 2.82583C83.6945 2.84983 83.2585 2.86183 82.9065 2.86183C82.5545 2.86183 82.2705 2.88183 82.0545 2.92183C81.8385 2.95383 81.6825 3.01783 81.5865 3.11383C81.4905 3.20983 81.4425 3.36983 81.4425 3.59383C81.4425 3.79383 81.5145 3.94583 81.6585 4.04983C81.8025 4.14583 82.0025 4.19783 82.2585 4.20583C82.6185 4.21383 82.9585 4.22183 83.2785 4.22983C83.6065 4.23783 83.9105 4.24183 84.1905 4.24183C84.3585 4.24183 84.5305 4.24183 84.7065 4.24183C84.8905 4.23383 85.0625 4.22983 85.2225 4.22983C85.8865 4.22983 86.4625 4.24983 86.9505 4.28983C87.4385 4.32183 87.8385 4.41783 88.1505 4.57783C88.4705 4.73783 88.7065 4.98183 88.8585 5.30983C89.0105 5.63783 89.0865 6.09783 89.0865 6.68983C89.0865 7.10583 89.0465 7.45783 88.9665 7.74583C88.8865 8.03383 88.7585 8.27383 88.5825 8.46583C88.4145 8.64983 88.1985 8.79383 87.9345 8.89783C87.6705 9.00183 87.3545 9.07383 86.9865 9.11383C86.7705 9.13783 86.3545 9.16583 85.7385 9.19783C85.1225 9.22983 84.3345 9.24583 83.3745 9.24583C82.4305 9.24583 81.6585 9.21783 81.0585 9.16183C80.4665 9.10583 80.0345 8.98183 79.7625 8.78983C79.5705 8.65383 79.4265 8.50983 79.3305 8.35783C79.2425 8.19783 79.1785 8.02983 79.1385 7.85383C79.1065 7.67783 79.0905 7.48983 79.0905 7.28983C79.0905 7.08183 79.0905 6.85783 79.0905 6.61783H81.5025C81.5025 6.70583 81.5025 6.79783 81.5025 6.89383C81.5025 6.98983 81.5225 7.07783 81.5625 7.15783C81.6025 7.22983 81.6745 7.29783 81.7785 7.36183C81.8825 7.41783 82.0425 7.45383 82.2585 7.46983C82.3625 7.47783 82.5545 7.48583 82.8345 7.49383C83.1225 7.50183 83.4825 7.50583 83.9145 7.50583C84.4745 7.50583 84.9305 7.50183 85.2825 7.49383C85.6425 7.48583 85.9225 7.45783 86.1225 7.40983C86.3225 7.36183 86.4585 7.28983 86.5305 7.19383C86.6025 7.09783 86.6385 6.95783 86.6385 6.77383C86.6385 6.59783 86.6025 6.46183 86.5305 6.36583C86.4585 6.26183 86.3545 6.18983 86.2185 6.14983C86.0825 6.10183 85.9185 6.07383 85.7265 6.06583C85.5425 6.05783 85.3385 6.05383 85.1145 6.05383C84.3305 6.04583 83.6345 6.04583 83.0265 6.05383C82.4185 6.05383 81.8905 6.03783 81.4425 6.00583C80.9945 5.97383 80.6145 5.91783 80.3025 5.83783C79.9985 5.75783 79.7505 5.62983 79.5585 5.45383C79.3745 5.27783 79.2385 5.04583 79.1505 4.75783C79.0705 4.46983 79.0305 4.10583 79.0305 3.66583C79.0305 3.27383 79.0625 2.93383 79.1265 2.64583C79.1985 2.35783 79.3145 2.11783 79.4745 1.92583C79.6345 1.72583 79.8425 1.57383 80.0985 1.46983C80.3625 1.35783 80.6865 1.27783 81.0705 1.22983C81.3265 1.19783 81.7385 1.16583 82.3065 1.13383C82.8825 1.10183 83.6025 1.08583 84.4665 1.08583C84.9225 1.08583 85.3305 1.08983 85.6905 1.09783C86.0585 1.09783 86.3825 1.11383 86.6625 1.14583C86.9505 1.17783 87.2025 1.22583 87.4185 1.28983C87.6345 1.34583 87.8225 1.43383 87.9825 1.55383C88.1585 1.68183 88.2945 1.81783 88.3905 1.96183C88.4945 2.10583 88.5705 2.26183 88.6185 2.42983C88.6665 2.59783 88.6985 2.78183 88.7145 2.98183C88.7305 3.17383 88.7385 3.38583 88.7385 3.61783H86.3505ZM103.696 1.16983V9.17383H101.392V3.07783L97.864 9.17383H95.908L92.428 3.07783V9.17383H90.124V1.16983H94L96.94 6.47383L99.844 1.16983H103.696ZM104.921 9.17383V1.16983H113.849V2.96983H107.333V4.36183H113.417V5.94583H107.333V7.37383H113.849V9.17383H104.921Z" fill="#161618"/>
</svg>
