<svg width="52" height="46" viewBox="0 0 52 46" fill="none" xmlns="http://www.w3.org/2000/svg">
<g clip-path="url(#clip0_684_710)">
<path d="M22.5009 24.0703L8.33594 30.0303V10.0703L22.5459 13.1953L22.5009 24.0703Z" fill="#8EACFF"/>
<path d="M28.3664 24.8652L23.7514 23.8652L23.7314 13.4902L28.3764 14.4702L28.3664 24.8652Z" fill="black"/>
<path d="M28.4609 35.4693L9.21094 31.2193L23.7109 25.1543L28.3659 26.1543L28.4609 35.4693Z" fill="#8EACFF"/>
<path d="M42.9019 29.3743L29.9219 35.0293V26.5293L42.9019 29.3743Z" fill="black"/>
<path d="M44.1714 28.3198L29.9014 25.2398V13.8848L44.1714 7.88477V28.3198Z" fill="black"/>
<path d="M43.9014 6.52977L23.7314 2.25977V12.0098L28.2964 12.9448L43.9014 6.52977Z" fill="black"/>
<path d="M22.5864 2.74023L8.31641 8.72023L22.5664 11.7202L22.5864 2.74023Z" fill="#8EACFF"/>
<path fill-rule="evenodd" clip-rule="evenodd" d="M7.74675 24.623V26.7627C4.82435 28.3907 3.47014 30.2143 3.47014 31.908C3.47014 32.9392 3.9624 34.011 5.03839 35.0821C6.1182 36.1569 7.73205 37.1716 9.80737 38.0456C13.9539 39.7918 19.7527 40.8964 26.2109 40.8964C32.6686 40.8964 38.4674 39.7874 42.6141 38.0389C44.6895 37.1638 46.3037 36.1484 47.3837 35.0741C48.4603 34.0032 48.9517 32.9338 48.9517 31.908C48.9517 30.2498 47.6526 28.4687 44.848 26.8623V24.6621C45.1484 24.7168 45.3695 24.8264 45.8549 25.1044C48.8466 26.818 50.9775 29.1273 50.9775 31.908C50.9775 33.6337 50.1397 35.19 48.8124 36.5103C47.4886 37.8271 45.6242 38.9682 43.4012 39.9055C38.9509 41.782 32.8728 42.9222 26.2109 42.9222C19.5496 42.9222 13.4716 41.7868 9.02113 39.9126C6.79797 38.9764 4.93331 37.8358 3.60923 36.5178C2.28133 35.196 1.44434 33.6374 1.44434 31.908C1.44434 29.0711 3.65773 26.7217 6.76088 24.993C7.24958 24.7208 7.74675 24.623 7.74675 24.623Z" fill="black"/>
<path fill-rule="evenodd" clip-rule="evenodd" d="M21.0862 37.1808C20.713 36.7641 20.0726 36.729 19.6559 37.1022L16.2213 40.1792C15.8046 40.5525 15.7695 41.1929 16.1427 41.6095C16.516 42.0262 17.1564 42.0614 17.573 41.6881L21.0077 38.6111C21.4243 38.2378 21.4595 37.5975 21.0862 37.1808Z" fill="black"/>
<path fill-rule="evenodd" clip-rule="evenodd" d="M17.5783 40.3423C17.1788 39.9507 16.5375 39.9571 16.1459 40.3566C15.9099 40.5974 15.7777 40.9211 15.7777 41.2582C15.7777 41.5953 15.9098 41.919 16.1459 42.1599C16.1667 42.1811 16.1884 42.2014 16.211 42.2207L19.7878 45.2793C20.2129 45.6429 20.8523 45.5929 21.2159 45.1678C21.5794 44.7426 21.5295 44.1032 21.1044 43.7397L17.8787 40.9813C17.8592 40.7475 17.7589 40.5194 17.5783 40.3423Z" fill="black"/>
</g>
<defs>
<clipPath id="clip0_684_710">
<rect width="51" height="45" fill="white" transform="translate(0.710938 0.529297)"/>
</clipPath>
</defs>
</svg>
