<svg width="174" height="39" viewBox="0 0 174 39" fill="none" xmlns="http://www.w3.org/2000/svg">
<path d="M66.4846 12.3538V27.7337H60.7909V12.3538H66.4846ZM66.4846 5.76717V9.9497H60.7909V5.76717H66.4846ZM59.0466 12.3538V16.0753H53.287V27.7337H47.5933V16.0753H44.5654V12.3538H47.5933V11.5964C47.5933 10.4108 47.714 9.41179 47.9553 8.59943C48.2186 7.78708 48.6465 7.13939 49.2389 6.65637C49.8313 6.15139 50.5992 5.78912 51.5427 5.56957C52.4862 5.35001 53.6491 5.24023 55.0313 5.24023C55.536 5.24023 56.0955 5.26219 56.7098 5.3061C57.3242 5.32806 57.9824 5.36099 58.6845 5.4049V9.12637C58.3115 9.10441 57.9276 9.09343 57.5326 9.09343C57.1377 9.09343 56.7757 9.09343 56.4465 9.09343C55.7444 9.09343 55.1849 9.1593 54.768 9.29104C54.3731 9.40081 54.055 9.57646 53.8136 9.81797C53.5942 10.0595 53.4516 10.3559 53.3858 10.7072C53.3199 11.0585 53.287 11.4756 53.287 11.9586V12.3538H59.0466Z" fill="black"/>
<path d="M86.9649 12.3868V16.207H77.6838V21.0482C77.6838 21.4434 77.6948 21.8167 77.7167 22.168C77.7387 22.5193 77.8155 22.8266 77.9471 23.0901C78.1007 23.3536 78.3421 23.5621 78.6712 23.7158C79.0003 23.8695 79.472 23.9464 80.0864 23.9464C80.7007 23.9464 81.1725 23.8805 81.5016 23.7488C81.8307 23.617 82.0721 23.4304 82.2256 23.1889C82.3792 22.9474 82.456 22.651 82.456 22.2997C82.478 21.9265 82.4889 21.5093 82.4889 21.0482H86.9649C86.9649 21.641 86.9539 22.1899 86.932 22.6949C86.932 23.1999 86.9101 23.6719 86.8662 24.111C86.8223 24.5501 86.7236 24.9673 86.57 25.3625C86.4383 25.7357 86.2409 26.087 85.9776 26.4164C85.4071 27.1189 84.6392 27.569 83.6738 27.7666C82.7303 27.9642 81.5564 28.063 80.1522 28.063C78.7699 28.063 77.5522 27.9972 76.499 27.8654C75.4678 27.7337 74.6011 27.4812 73.899 27.108C73.2188 26.7128 72.7032 26.1639 72.3521 25.4613C72.023 24.7587 71.8585 23.8476 71.8585 22.7278V16.207H68.8964V12.3868H71.8585V8.5665H77.6838V12.3868H86.9649Z" fill="black"/>
<path d="M97.898 21.8386C96.428 21.8386 95.1115 21.8167 93.9486 21.7728C92.8077 21.7289 91.8423 21.5642 91.0524 21.2788C90.2625 20.9933 89.6591 20.5323 89.2423 19.8956C88.8254 19.2369 88.6169 18.2928 88.6169 17.0633C88.6169 16.2509 88.7596 15.5154 89.0448 14.8568C89.352 14.1761 89.7688 13.6492 90.2954 13.276C90.9317 12.7929 92.0068 12.4636 93.5208 12.288C95.0567 12.1123 97.0533 12.0245 99.5107 12.0245C101.31 12.0245 102.813 12.0684 104.02 12.1562C105.226 12.2221 106.203 12.4087 106.949 12.7161C107.695 13.0235 108.232 13.4736 108.561 14.0664C108.912 14.6592 109.121 15.4825 109.187 16.5364H103.197C103.153 16.2949 103.054 16.0973 102.901 15.9436C102.769 15.7899 102.539 15.6801 102.209 15.6142C101.902 15.5264 101.496 15.4715 100.992 15.4496C100.487 15.4276 99.8727 15.4166 99.1487 15.4166C98.4027 15.4166 97.7335 15.4276 97.1411 15.4496C96.5706 15.4496 96.0879 15.4935 95.6929 15.5813C95.298 15.6691 94.9908 15.8118 94.7714 16.0094C94.5739 16.1851 94.4752 16.4485 94.4752 16.7998C94.4752 17.1072 94.552 17.3377 94.7056 17.4914C94.8811 17.6232 95.1444 17.722 95.4955 17.7878C95.8685 17.8537 96.3402 17.8866 96.9107 17.8866C97.4811 17.8866 98.1723 17.8866 98.9841 17.8866C99.3352 17.8866 99.7082 17.8866 100.103 17.8866C100.498 17.8647 100.86 17.8537 101.189 17.8537C102.703 17.8537 104.009 17.8976 105.106 17.9854C106.225 18.0513 107.135 18.2489 107.837 18.5782C108.561 18.8856 109.088 19.3467 109.417 19.9614C109.768 20.5762 109.944 21.4105 109.944 22.4644C109.944 23.65 109.779 24.605 109.45 25.3296C109.121 26.0541 108.528 26.6249 107.673 27.0421C106.839 27.4373 105.698 27.7008 104.25 27.8325C102.824 27.9642 101.014 28.0301 98.8196 28.0301C97.1081 28.0301 95.6161 27.9972 94.3436 27.9313C93.071 27.8654 92.0068 27.6788 91.1511 27.3714C90.2954 27.0421 89.6482 26.5371 89.2093 25.8565C88.7705 25.1759 88.5401 24.2098 88.5182 22.9584H94.4752C94.4752 23.3316 94.552 23.628 94.7056 23.8476C94.8811 24.0452 95.1554 24.1989 95.5284 24.3086C95.9014 24.4184 96.3731 24.4843 96.9436 24.5062C97.536 24.5282 98.2491 24.5392 99.0828 24.5392C100.004 24.5392 100.794 24.5392 101.452 24.5392C102.111 24.5172 102.637 24.4623 103.032 24.3745C103.449 24.2647 103.745 24.111 103.921 23.9134C104.118 23.6939 104.217 23.3975 104.217 23.0242C104.217 22.4753 103.987 22.146 103.526 22.0362C103.065 21.9045 102.308 21.8386 101.255 21.8386H97.898Z" fill="black"/>
<path d="M134.327 27.7329H128.634V19.6972C128.634 19.0824 128.601 18.5665 128.535 18.1493C128.469 17.7322 128.294 17.3918 128.008 17.1284C127.723 16.8649 127.306 16.6783 126.758 16.5685C126.209 16.4587 125.452 16.4038 124.487 16.4038C122.863 16.4038 121.7 16.6454 120.998 17.1284C120.318 17.6114 119.978 18.4677 119.978 19.6972V27.7329H114.284V12.353H119.978V15.2182C120.197 14.6913 120.472 14.2302 120.801 13.835C121.13 13.4398 121.536 13.1105 122.018 12.847C122.501 12.5836 123.083 12.386 123.763 12.2542C124.465 12.1225 125.31 12.0566 126.297 12.0566C128.25 12.0566 129.808 12.3091 130.97 12.8141C132.155 13.3191 133.022 14.1973 133.57 15.4488C133.724 14.9877 133.911 14.5596 134.13 14.1644C134.371 13.7692 134.766 13.3959 135.315 13.0446C135.688 12.8031 136.313 12.5836 137.191 12.386C138.09 12.1664 139.1 12.0566 140.219 12.0566C143.005 12.0566 145.079 12.5946 146.439 13.6704C147.799 14.7242 148.479 16.4697 148.479 18.9068V27.7329H142.884V20.0924C142.884 19.3678 142.83 18.7641 142.72 18.281C142.632 17.798 142.435 17.4248 142.127 17.1613C141.842 16.8759 141.414 16.6783 140.844 16.5685C140.295 16.4587 139.549 16.4038 138.606 16.4038C137.684 16.4038 136.938 16.4917 136.368 16.6673C135.819 16.821 135.392 17.0625 135.084 17.3918C134.777 17.7212 134.569 18.1383 134.459 18.6433C134.371 19.1263 134.327 19.7082 134.327 20.3888V27.7329Z" fill="#8EACFF"/>
<path d="M166.858 18.1493V17.6882C166.858 17.1613 166.77 16.7551 166.594 16.4697C166.441 16.1623 166.178 15.9428 165.805 15.811C165.454 15.6574 164.993 15.5586 164.422 15.5146C163.874 15.4707 163.205 15.4488 162.415 15.4488C161.603 15.4488 160.879 15.4707 160.243 15.5146C159.628 15.5366 159.102 15.6244 158.663 15.7781C158.246 15.9318 157.928 16.1623 157.708 16.4697C157.489 16.7551 157.379 17.1723 157.379 17.7212V18.1493H166.858ZM157.379 21.6732C157.379 22.244 157.445 22.7051 157.577 23.0564C157.708 23.4077 157.939 23.6931 158.268 23.9126C158.597 24.1102 159.036 24.253 159.584 24.3408C160.133 24.4066 160.824 24.4396 161.658 24.4396C162.733 24.4396 163.599 24.4396 164.258 24.4396C164.938 24.4176 165.464 24.3518 165.837 24.242C166.21 24.1322 166.463 23.9566 166.594 23.715C166.726 23.4735 166.803 23.1332 166.825 22.6941H172.453C172.453 23.726 172.288 24.5933 171.959 25.2958C171.652 25.9765 171.147 26.5253 170.445 26.9425C169.765 27.3597 168.876 27.6451 167.779 27.7988C166.704 27.9744 165.399 28.0622 163.863 28.0622C161.669 28.0622 159.793 27.9964 158.235 27.8646C156.699 27.7329 155.437 27.4146 154.45 26.9096C153.485 26.4046 152.772 25.6581 152.311 24.6701C151.872 23.6821 151.653 22.3318 151.653 20.6193C151.653 18.5774 151.817 16.9857 152.146 15.844C152.497 14.7023 153.112 13.857 153.989 13.3081C154.867 12.7373 156.052 12.386 157.544 12.2542C159.058 12.1225 160.978 12.0566 163.303 12.0566C165.081 12.0566 166.573 12.1554 167.779 12.353C169.008 12.5506 169.962 12.9458 170.643 13.5386C171.169 13.9997 171.553 14.4937 171.794 15.0206C172.036 15.5476 172.2 16.1294 172.288 16.7661C172.376 17.3809 172.42 18.0505 172.42 18.775C172.42 19.4776 172.431 20.2461 172.453 21.0804H157.379V21.6732Z" fill="#8EACFF"/>
<path d="M18.8718 20.4009L6.60352 25.5662V8.26758L18.9107 10.9759L18.8718 20.4009Z" fill="#8EACFF"/>
<path d="M23.9519 21.0908L19.9548 20.2241L19.9375 11.2324L23.9605 12.0818L23.9519 21.0908Z" fill="black"/>
<path d="M24.0337 30.2815L7.36133 26.5981L19.9197 21.3418L23.9514 22.2085L24.0337 30.2815Z" fill="#8EACFF"/>
<path d="M36.5417 24.9989L25.2998 29.8999V22.5332L36.5417 24.9989Z" fill="black"/>
<path d="M37.6404 24.0853L25.2812 21.416V11.575L37.6404 6.375V24.0853Z" fill="black"/>
<path d="M37.4067 5.20067L19.9375 1.5V9.95L23.8912 10.7603L37.4067 5.20067Z" fill="black"/>
<path d="M18.9461 1.91602L6.58691 7.09868L18.9288 9.69868L18.9461 1.91602Z" fill="#8EACFF"/>
<path fill-rule="evenodd" clip-rule="evenodd" d="M6.09327 20.8809V22.7352C3.56218 24.1462 2.3893 25.7266 2.3893 27.1945C2.3893 28.0882 2.81566 29.0171 3.74757 29.9453C4.68279 30.8769 6.08053 31.7563 7.87796 32.5137C11.4692 34.0271 16.4916 34.9845 22.085 34.9845C27.678 34.9845 32.7003 34.0233 36.2917 32.5079C38.0893 31.7495 39.4873 30.8695 40.4227 29.9384C41.3551 29.0104 41.7808 28.0835 41.7808 27.1945C41.7808 25.7574 40.6556 24.2137 38.2266 22.8215V20.9147C38.4867 20.9621 38.6782 21.0571 39.0986 21.298C41.6897 22.7831 43.5353 24.7845 43.5353 27.1945C43.5353 28.6901 42.8097 30.0389 41.6601 31.1832C40.5135 32.3244 38.8988 33.3133 36.9734 34.1257C33.1191 35.752 27.8549 36.7402 22.085 36.7402C16.3157 36.7402 11.0515 35.7561 7.197 34.1318C5.27153 33.3204 3.65655 32.3319 2.50978 31.1897C1.35969 30.0441 0.634766 28.6933 0.634766 27.1945C0.634766 24.7359 2.55178 22.6997 5.23941 21.2015C5.66266 20.9655 6.09327 20.8809 6.09327 20.8809Z" fill="black"/>
<path fill-rule="evenodd" clip-rule="evenodd" d="M17.6463 31.7628C17.323 31.4017 16.7683 31.3712 16.4075 31.6947L13.4327 34.3614C13.0719 34.6849 13.0414 35.2399 13.3647 35.601C13.688 35.9621 14.2426 35.9926 14.6035 35.6691L17.5782 33.0024C17.9391 32.6789 17.9695 32.1239 17.6463 31.7628Z" fill="black"/>
<path fill-rule="evenodd" clip-rule="evenodd" d="M14.6087 34.5048C14.2627 34.1655 13.7072 34.171 13.3681 34.5173C13.1637 34.7259 13.0492 35.0065 13.0492 35.2987C13.0492 35.5908 13.1636 35.8714 13.3681 36.0801C13.3861 36.0985 13.4049 36.116 13.4244 36.1328L16.5223 38.7836C16.8905 39.0987 17.4443 39.0554 17.7592 38.6869C18.0741 38.3185 18.0308 37.7643 17.6626 37.4492L14.8688 35.0586C14.852 34.856 14.7651 34.6583 14.6087 34.5048Z" fill="black"/>
</svg>
