<svg width="163" height="36" viewBox="0 0 163 36" fill="none" xmlns="http://www.w3.org/2000/svg">
<path fill-rule="evenodd" clip-rule="evenodd" d="M6.29234 17.8623C6.52901 18.2872 6.37647 18.8235 5.95162 19.0601C3.41105 20.4754 2.23377 22.0607 2.23377 23.5331C2.23377 24.4296 2.66172 25.3614 3.59713 26.2925C4.53585 27.2269 5.93884 28.109 7.74301 28.8688C11.3478 30.3869 16.3889 31.3472 22.0033 31.3472C27.6173 31.3472 32.6584 30.383 36.2633 28.863C38.0676 28.1022 39.4709 27.2195 40.4098 26.2855C41.3457 25.3546 41.7729 24.4249 41.7729 23.5331C41.7729 22.0916 40.6435 20.5432 38.2054 19.1466C37.7834 18.9049 37.6372 18.3669 37.879 17.9449C38.1207 17.5229 38.6587 17.3768 39.0807 17.6185C41.6815 19.1082 43.534 21.1157 43.534 23.5331C43.534 25.0333 42.8057 26.3864 41.6518 27.5342C40.5009 28.6789 38.8802 29.6709 36.9476 30.4858C33.0788 32.1171 27.7948 33.1083 22.0033 33.1083C16.2124 33.1083 10.9285 32.1212 7.0595 30.4919C5.12681 29.678 3.50577 28.6865 2.3547 27.5407C1.2003 26.3916 0.472656 25.0366 0.472656 23.5331C0.472656 21.0669 2.39686 19.0245 5.09456 17.5216C5.5194 17.285 6.05567 17.4375 6.29234 17.8623Z" fill="#161618"/>
<path fill-rule="evenodd" clip-rule="evenodd" d="M17.5497 28.1153C17.2252 27.753 16.6685 27.7225 16.3063 28.047L13.3204 30.7219C12.9582 31.0464 12.9276 31.6031 13.2521 31.9654C13.5766 32.3276 14.1333 32.3582 14.4955 32.0337L17.4814 29.3587C17.8436 29.0342 17.8742 28.4775 17.5497 28.1153Z" fill="#161618"/>
<path fill-rule="evenodd" clip-rule="evenodd" d="M14.5004 30.865C14.1531 30.5246 13.5956 30.5301 13.2551 30.8774C13.05 31.0868 12.935 31.3682 12.935 31.6613C12.935 31.9543 13.0499 32.2357 13.2551 32.4451C13.2732 32.4635 13.2921 32.4812 13.3117 32.498L16.4212 35.157C16.7908 35.473 17.3466 35.4296 17.6627 35.06C17.9787 34.6904 17.9353 34.1345 17.5657 33.8185L14.7615 31.4205C14.7446 31.2173 14.6574 31.0189 14.5004 30.865Z" fill="#161618"/>
<path d="M23.546 27.849L8.29758 24.8192C8.20545 24.8014 8.12255 24.7517 8.06349 24.6787C8.00442 24.6058 7.97297 24.5144 7.97468 24.4206V8.07585C7.97359 8.01646 7.98578 7.95759 8.01037 7.90353C8.03496 7.84947 8.07133 7.80159 8.1168 7.76338C8.16227 7.72517 8.21569 7.6976 8.27318 7.68269C8.33067 7.66778 8.39076 7.6659 8.44907 7.67719L23.6975 10.707C23.7896 10.7248 23.8725 10.7745 23.9316 10.8474C23.9906 10.9203 24.0221 11.0118 24.0204 11.1056V27.4503C24.0215 27.5097 24.0093 27.5686 23.9847 27.6226C23.9601 27.6767 23.9237 27.7246 23.8783 27.7628C23.8328 27.801 23.7794 27.8286 23.7219 27.8435C23.6644 27.8584 23.6043 27.8603 23.546 27.849Z" fill="white"/>
<path d="M36.8332 22.9618L26.3686 27.4068C26.308 27.4325 26.242 27.4427 26.1765 27.4367C26.1109 27.4307 26.0479 27.4085 25.9931 27.3721C25.9382 27.3358 25.8932 27.2865 25.862 27.2286C25.8309 27.1706 25.8145 27.1058 25.8145 27.04V10.7671C25.8145 10.6888 25.8376 10.6124 25.8809 10.5471C25.9241 10.4819 25.9856 10.4309 26.0576 10.4003L36.5222 5.95539C36.5828 5.92973 36.6488 5.91947 36.7143 5.92552C36.7799 5.93156 36.8429 5.95373 36.8977 5.99004C36.9526 6.02636 36.9976 6.07568 37.0288 6.13362C37.06 6.19157 37.0763 6.25635 37.0764 6.32215V22.5991C37.0755 22.6767 37.0521 22.7523 37.0089 22.8167C36.9657 22.8812 36.9046 22.9316 36.8332 22.9618Z" fill="#161618"/>
<path fill-rule="evenodd" clip-rule="evenodd" d="M20.0964 18.7441L38.456 21.7925L38.0233 24.3985L20.3686 21.4672L7.61479 26.3232L6.6748 23.8544L20.0964 18.7441Z" fill="#8EACFF"/>
<path d="M9.49784 5.81977L20.1339 1.83326C20.1975 1.80976 20.2661 1.8029 20.3332 1.81333L35.6374 4.18132C35.7224 4.19433 35.8009 4.23445 35.8612 4.29573C35.9215 4.35701 35.9604 4.43615 35.9721 4.52133C35.9837 4.60652 35.9675 4.69319 35.9259 4.76842C35.8843 4.84365 35.8194 4.90338 35.7411 4.93874L25.0652 9.72256C24.989 9.75713 24.904 9.7669 24.822 9.75047L9.55366 6.60114C9.46144 6.59038 9.37584 6.54777 9.31168 6.48067C9.24751 6.41357 9.2088 6.32617 9.20219 6.23356C9.19557 6.14095 9.22147 6.04894 9.27545 5.9734C9.32943 5.89786 9.40809 5.84352 9.49784 5.81977Z" fill="black"/>
<path fill-rule="evenodd" clip-rule="evenodd" d="M21.4854 0.628906L21.6209 20.1628L18.9793 20.1811L18.8438 0.647234L21.4854 0.628906Z" fill="#8EACFF"/>
<path d="M7.92773 24.1576L19.7039 19.7405L19.6281 9.93372L8.47388 7.70924C8.41529 7.69727 8.35477 7.69863 8.29677 7.71323C8.23878 7.72783 8.1848 7.75529 8.13886 7.79358C8.09292 7.83186 8.05618 7.88 8.03136 7.93441C8.00655 7.98882 7.99429 8.0481 7.9955 8.10789L7.92773 24.1576Z" fill="#F7F7F8"/>
<path d="M19.6348 8.63487L19.567 2.0332L9.33764 5.74066C9.25591 5.76988 9.18597 5.82499 9.13841 5.8976C9.09085 5.97021 9.06829 6.05636 9.07415 6.14296C9.08002 6.22956 9.11398 6.31188 9.1709 6.37742C9.22781 6.44295 9.30454 6.48812 9.38947 6.50606L19.6348 8.63487Z" fill="#F7F7F8"/>
<path d="M9.10645 24.9802L20.2926 20.7227L24.016 21.3406V27.4638C24.0171 27.5232 24.0049 27.5821 23.9803 27.6362C23.9557 27.6902 23.9193 27.7381 23.8739 27.7763C23.8284 27.8145 23.775 27.8421 23.7175 27.857C23.66 27.8719 23.5999 27.8738 23.5416 27.8625L9.10645 24.9802Z" fill="black"/>
<path d="M69.1715 12.922V25.998H64.3275V12.922H69.1715ZM69.1715 7.32205V10.878H64.3275V7.32205H69.1715ZM62.8435 12.922V16.086H57.9435V25.998H53.0995V16.086H50.5235V12.922H53.0995V12.278C53.0995 11.27 53.2022 10.4207 53.4075 9.73005C53.6315 9.03938 53.9955 8.48871 54.4995 8.07805C55.0035 7.64871 55.6568 7.34071 56.4595 7.15405C57.2622 6.96738 58.2515 6.87405 59.4275 6.87405C59.8568 6.87405 60.3328 6.89271 60.8555 6.93005C61.3782 6.94871 61.9382 6.97671 62.5355 7.01405V10.178C62.2182 10.1594 61.8915 10.15 61.5555 10.15C61.2195 10.15 60.9115 10.15 60.6315 10.15C60.0342 10.15 59.5582 10.206 59.2035 10.318C58.8675 10.4114 58.5968 10.5607 58.3915 10.766C58.2048 10.9714 58.0835 11.2234 58.0275 11.522C57.9715 11.8207 57.9435 12.1754 57.9435 12.586V12.922H62.8435ZM86.5954 12.95V16.198H78.6994V20.314C78.6994 20.65 78.7087 20.9674 78.7274 21.266C78.746 21.5647 78.8114 21.826 78.9234 22.05C79.054 22.274 79.2594 22.4514 79.5394 22.582C79.8194 22.7127 80.2207 22.778 80.7434 22.778C81.266 22.778 81.6674 22.722 81.9474 22.61C82.2274 22.498 82.4327 22.3394 82.5634 22.134C82.694 21.9287 82.7594 21.6767 82.7594 21.378C82.778 21.0607 82.7874 20.706 82.7874 20.314H86.5954C86.5954 20.818 86.586 21.2847 86.5674 21.714C86.5674 22.1434 86.5487 22.5447 86.5114 22.918C86.474 23.2914 86.39 23.646 86.2594 23.982C86.1474 24.2994 85.9794 24.598 85.7554 24.878C85.27 25.4754 84.6167 25.858 83.7954 26.026C82.9927 26.194 81.994 26.278 80.7994 26.278C79.6234 26.278 78.5874 26.222 77.6914 26.11C76.814 25.998 76.0767 25.7834 75.4794 25.466C74.9007 25.13 74.462 24.6634 74.1634 24.066C73.8834 23.4687 73.7434 22.694 73.7434 21.742V16.198H71.2234V12.95H73.7434V9.70205H78.6994V12.95H86.5954ZM95.8968 20.986C94.6462 20.986 93.5262 20.9674 92.5368 20.93C91.5662 20.8927 90.7448 20.7527 90.0728 20.51C89.4008 20.2674 88.8875 19.8754 88.5328 19.334C88.1782 18.774 88.0008 17.9714 88.0008 16.926C88.0008 16.2354 88.1222 15.61 88.3648 15.05C88.6262 14.4714 88.9808 14.0234 89.4288 13.706C89.9702 13.2954 90.8848 13.0154 92.1728 12.866C93.4795 12.7167 95.1782 12.642 97.2688 12.642C98.7995 12.642 100.078 12.6794 101.105 12.754C102.132 12.81 102.962 12.9687 103.597 13.23C104.232 13.4914 104.689 13.874 104.969 14.378C105.268 14.882 105.445 15.582 105.501 16.478H100.405C100.368 16.2727 100.284 16.1047 100.153 15.974C100.041 15.8434 99.8448 15.75 99.5648 15.694C99.3035 15.6194 98.9582 15.5727 98.5288 15.554C98.0995 15.5354 97.5768 15.526 96.9608 15.526C96.3262 15.526 95.7568 15.5354 95.2528 15.554C94.7675 15.554 94.3568 15.5914 94.0208 15.666C93.6848 15.7407 93.4235 15.862 93.2368 16.03C93.0688 16.1794 92.9848 16.4034 92.9848 16.702C92.9848 16.9634 93.0502 17.1594 93.1808 17.29C93.3302 17.402 93.5542 17.486 93.8528 17.542C94.1702 17.598 94.5715 17.626 95.0568 17.626C95.5422 17.626 96.1302 17.626 96.8208 17.626C97.1195 17.626 97.4368 17.626 97.7728 17.626C98.1088 17.6074 98.4168 17.598 98.6968 17.598C99.9848 17.598 101.096 17.6354 102.029 17.71C102.981 17.766 103.756 17.934 104.353 18.214C104.969 18.4754 105.417 18.8674 105.697 19.39C105.996 19.9127 106.145 20.622 106.145 21.518C106.145 22.526 106.005 23.338 105.725 23.954C105.445 24.57 104.941 25.0554 104.213 25.41C103.504 25.746 102.533 25.97 101.301 26.082C100.088 26.194 98.5475 26.25 96.6808 26.25C95.2248 26.25 93.9555 26.222 92.8728 26.166C91.7902 26.11 90.8848 25.9514 90.1568 25.69C89.4288 25.41 88.8782 24.9807 88.5048 24.402C88.1315 23.8234 87.9355 23.002 87.9168 21.938H92.9848C92.9848 22.2554 93.0502 22.5074 93.1808 22.694C93.3302 22.862 93.5635 22.9927 93.8808 23.086C94.1982 23.1794 94.5995 23.2354 95.0848 23.254C95.5888 23.2727 96.1955 23.282 96.9048 23.282C97.6888 23.282 98.3608 23.282 98.9208 23.282C99.4808 23.2634 99.9288 23.2167 100.265 23.142C100.62 23.0487 100.872 22.918 101.021 22.75C101.189 22.5634 101.273 22.3114 101.273 21.994C101.273 21.5274 101.077 21.2474 100.685 21.154C100.293 21.042 99.6488 20.986 98.7528 20.986H95.8968Z" fill="#161618"/>
<path d="M128.564 25.998H123.72V19.166C123.72 18.6434 123.692 18.2047 123.636 17.85C123.58 17.4954 123.431 17.206 123.188 16.982C122.945 16.758 122.591 16.5994 122.124 16.506C121.657 16.4127 121.013 16.366 120.192 16.366C118.811 16.366 117.821 16.5714 117.224 16.982C116.645 17.3927 116.356 18.1207 116.356 19.166V25.998H111.512V12.922H116.356V15.358C116.543 14.91 116.776 14.518 117.056 14.182C117.336 13.846 117.681 13.566 118.092 13.342C118.503 13.118 118.997 12.95 119.576 12.838C120.173 12.726 120.892 12.67 121.732 12.67C123.393 12.67 124.719 12.8847 125.708 13.314C126.716 13.7434 127.453 14.49 127.92 15.554C128.051 15.162 128.209 14.798 128.396 14.462C128.601 14.126 128.937 13.8087 129.404 13.51C129.721 13.3047 130.253 13.118 131 12.95C131.765 12.7634 132.624 12.67 133.576 12.67C135.947 12.67 137.711 13.1274 138.868 14.042C140.025 14.938 140.604 16.422 140.604 18.494V25.998H135.844V19.502C135.844 18.886 135.797 18.3727 135.704 17.962C135.629 17.5514 135.461 17.234 135.2 17.01C134.957 16.7674 134.593 16.5994 134.108 16.506C133.641 16.4127 133.007 16.366 132.204 16.366C131.42 16.366 130.785 16.4407 130.3 16.59C129.833 16.7207 129.469 16.926 129.208 17.206C128.947 17.486 128.769 17.8407 128.676 18.27C128.601 18.6807 128.564 19.1754 128.564 19.754V25.998ZM156.24 17.85V17.458C156.24 17.01 156.165 16.6647 156.016 16.422C155.885 16.1607 155.661 15.974 155.344 15.862C155.045 15.7314 154.653 15.6474 154.168 15.61C153.701 15.5727 153.132 15.554 152.46 15.554C151.769 15.554 151.153 15.5727 150.612 15.61C150.089 15.6287 149.641 15.7034 149.268 15.834C148.913 15.9647 148.642 16.1607 148.456 16.422C148.269 16.6647 148.176 17.0194 148.176 17.486V17.85H156.24ZM148.176 20.846C148.176 21.3314 148.232 21.7234 148.344 22.022C148.456 22.3207 148.652 22.5634 148.932 22.75C149.212 22.918 149.585 23.0394 150.052 23.114C150.518 23.17 151.106 23.198 151.816 23.198C152.73 23.198 153.468 23.198 154.028 23.198C154.606 23.1794 155.054 23.1234 155.372 23.03C155.689 22.9367 155.904 22.7874 156.016 22.582C156.128 22.3767 156.193 22.0874 156.212 21.714H161C161 22.5914 160.86 23.3287 160.58 23.926C160.318 24.5047 159.889 24.9714 159.292 25.326C158.713 25.6807 157.957 25.9234 157.024 26.054C156.109 26.2034 154.998 26.278 153.692 26.278C151.825 26.278 150.229 26.222 148.904 26.11C147.597 25.998 146.524 25.7274 145.684 25.298C144.862 24.8687 144.256 24.234 143.864 23.394C143.49 22.554 143.304 21.406 143.304 19.95C143.304 18.214 143.444 16.8607 143.724 15.89C144.022 14.9194 144.545 14.2007 145.292 13.734C146.038 13.2487 147.046 12.95 148.316 12.838C149.604 12.726 151.237 12.67 153.216 12.67C154.728 12.67 155.997 12.754 157.024 12.922C158.069 13.09 158.881 13.426 159.46 13.93C159.908 14.322 160.234 14.742 160.44 15.19C160.645 15.638 160.785 16.1327 160.86 16.674C160.934 17.1967 160.972 17.766 160.972 18.382C160.972 18.9794 160.981 19.6327 161 20.342H148.176V20.846Z" fill="white"/>
</svg>
